<svg xmlns="http://www.w3.org/2000/svg" width="523.731" height="110" viewBox="0 0 523.731 110">
  <g id="Group_3" data-name="Group 3" transform="translate(-0.136 0)">
    <path id="Shape" d="M36.5,110a36,36,0,0,1-14.173-2.885A36.882,36.882,0,0,1,2.88,87.637,36.156,36.156,0,0,1,0,73.442V36.559a36.158,36.158,0,0,1,2.88-14.2A36.882,36.882,0,0,1,22.328,2.885a36.259,36.259,0,0,1,28.345,0A36.882,36.882,0,0,1,70.12,22.363,36.158,36.158,0,0,1,73,36.559V73.442a36.121,36.121,0,0,1-2.876,14.2,36.88,36.88,0,0,1-19.45,19.478A36.007,36.007,0,0,1,36.5,110ZM29.865,86.474h13.27v4.763a2.957,2.957,0,0,0,5.912,0v-16.6c-.01-7.233-6.484-11.136-12.57-11.136S23.954,67.4,23.954,74.632V91.237a2.925,2.925,0,0,0,2.956,2.887,2.961,2.961,0,0,0,2.956-2.887V86.475ZM18.842,54.338a.58.58,0,0,0-.419.166.531.531,0,0,0-.173.4v1.325a.531.531,0,0,0,.173.4.58.58,0,0,0,.419.166H54.819l-4.01,3.685a.453.453,0,0,0-.2.374.574.574,0,0,0,.2.427l.994.9a.487.487,0,0,0,.392.192.457.457,0,0,0,.392-.192l6.526-6.238a.453.453,0,0,0,.2-.374.423.423,0,0,0-.2-.374l-6.526-6.238a.485.485,0,0,0-.392-.192.454.454,0,0,0-.392.192l-.994.9a.591.591,0,0,0-.2.427.419.419,0,0,0,.2.375l4.01,3.685ZM29.219,15.876a2.966,2.966,0,0,0-2.984,2.94V43.555a2.966,2.966,0,0,0,2.984,2.94l13.3-.023,2.4,0a2.941,2.941,0,1,0,0-5.881H32.2V18.816A2.966,2.966,0,0,0,29.219,15.876Zm14.125,64.64H29.656V74.151a5.59,5.59,0,0,1,2.133-4.726,7.785,7.785,0,0,1,4.687-1.384c3.32,0,6.868,1.605,6.868,6.11v6.364Z" transform="translate(231)" fill="#f7f7f7"/>
    <g id="Group" transform="translate(0 33)">
      <path id="Path" d="M27.267,35.084h0a3.75,3.75,0,0,1-3.76,3.737L3.76,38.857A3.75,3.75,0,0,1,0,35.12v-.036H0V3.737a3.76,3.76,0,0,1,7.52,0V31.355h16A3.729,3.729,0,0,1,27.267,35.084Z" transform="translate(0.136)" fill="#f7f7f7"/>
      <path id="Shape-2" data-name="Shape" d="M19.287,40a19.263,19.263,0,0,1-13.28-5.567A19.975,19.975,0,0,1,0,20,19.975,19.975,0,0,1,6.007,5.567,19.263,19.263,0,0,1,19.287,0,19.371,19.371,0,0,1,32.615,5.574,19.946,19.946,0,0,1,38.628,20a19.954,19.954,0,0,1-6.013,14.433A19.344,19.344,0,0,1,19.287,40Zm0-32.66c-6.339,0-11.3,5.561-11.3,12.66s4.965,12.66,11.3,12.66c6.444,0,11.3-5.443,11.3-12.66S25.731,7.339,19.287,7.339Z" transform="translate(37.628)" fill="#f7f7f7"/>
      <path id="Path-2" data-name="Path" d="M7.8,20.009c0,7.229,5.149,12.66,11.164,12.66A9.726,9.726,0,0,0,23.846,31.1a3.409,3.409,0,0,1,2.008-.618,3.749,3.749,0,0,1,3.686,3.808,3.894,3.894,0,0,1-1.731,3.19,17.4,17.4,0,0,1-9,2.517C9.326,40,0,31.821,0,20.055,0,8.179,9.326,0,18.812,0a17.917,17.917,0,0,1,9,2.517,3.907,3.907,0,0,1,1.731,3.19,3.749,3.749,0,0,1-3.686,3.808A3.363,3.363,0,0,1,23.9,8.9a10.056,10.056,0,0,0-4.935-1.568C12.949,7.349,7.8,12.9,7.8,20.009Z" transform="translate(89.89)" fill="#f7f7f7"/>
      <path id="Shape-3" data-name="Shape" d="M28.067,38.858a3.764,3.764,0,0,1-2.629-1.073,3.591,3.591,0,0,1-1.117-2.593V29.136H7.491v6.056a3.591,3.591,0,0,1-1.117,2.593,3.764,3.764,0,0,1-2.629,1.073A3.71,3.71,0,0,1,0,35.192V14.12A13.132,13.132,0,0,1,4.834,3.795,17.221,17.221,0,0,1,15.873,0,17.337,17.337,0,0,1,26.99,3.8,13.119,13.119,0,0,1,31.811,14.12V35.192a3.591,3.591,0,0,1-1.117,2.593A3.762,3.762,0,0,1,28.067,38.858ZM15.883,6.291C11.83,6.291,7.5,8.362,7.5,14.174v8.21H24.321v-8.21C24.321,8.362,19.962,6.291,15.883,6.291Z" transform="translate(136.471)" fill="#f7f7f7"/>
      <path id="Path-3" data-name="Path" d="M27.267,35.084h0a3.75,3.75,0,0,1-3.76,3.737L3.76,38.857A3.75,3.75,0,0,1,0,35.12v-.036H0V3.737a3.76,3.76,0,0,1,7.52,0V31.355h16A3.734,3.734,0,0,1,27.267,35.084Z" transform="translate(188.733)" fill="#f7f7f7"/>
    </g>
    <g id="Group-2" data-name="Group" transform="translate(320 33)">
      <path id="Shape-4" data-name="Shape" d="M26.98,38.858a3.547,3.547,0,0,1-2.527-1.073,3.661,3.661,0,0,1-1.074-2.593V29.136H7.2v6.056a3.661,3.661,0,0,1-1.074,2.593A3.547,3.547,0,0,1,3.6,38.858,3.637,3.637,0,0,1,0,35.192V14.12A13.778,13.778,0,0,1,1.266,8.24,13.308,13.308,0,0,1,4.648,3.795,16.156,16.156,0,0,1,15.26,0,16.26,16.26,0,0,1,25.942,3.8,13.264,13.264,0,0,1,29.32,8.244,13.8,13.8,0,0,1,30.58,14.12V35.192a3.662,3.662,0,0,1-1.074,2.593A3.545,3.545,0,0,1,26.98,38.858ZM15.268,6.291c-3.9,0-8.059,2.071-8.059,7.883v8.21h16.17v-8.21C23.379,8.362,19.189,6.291,15.268,6.291Z" transform="translate(0 0)" fill="#f7f7f7"/>
      <path id="Path-4" data-name="Path" d="M49.644,4.856,39.085,36.378a3.76,3.76,0,0,1-7.07,0l-7.1-21.187-7.1,21.187a3.638,3.638,0,0,1-3.535,2.478,3.63,3.63,0,0,1-3.535-2.478L.193,4.856A3.657,3.657,0,1,1,7.119,2.5L14.3,23.927,21.474,2.5c.018-.045.045-.09.063-.136a3.58,3.58,0,0,1,.207-.461l.135-.217c.081-.127.171-.253.261-.371a1.885,1.885,0,0,1,.18-.2,3.251,3.251,0,0,1,.315-.3,2.228,2.228,0,0,1,.234-.172,2.824,2.824,0,0,1,.351-.217c.1-.054.207-.1.306-.145.081-.036.153-.081.234-.109l.108-.027c.117-.036.243-.054.36-.081s.234-.045.342-.063S24.8,0,24.928,0s.243,0,.36.009a2.268,2.268,0,0,1,.342.063c.117.027.243.045.36.081A.472.472,0,0,1,26.1.181c.081.027.153.072.234.109a3.176,3.176,0,0,1,.306.145,2.824,2.824,0,0,1,.351.217c.081.054.153.109.234.172a2.464,2.464,0,0,1,.315.3,1.885,1.885,0,0,1,.18.2,3.443,3.443,0,0,1,.261.371c.045.072.09.136.135.217a4.238,4.238,0,0,1,.207.461c.018.045.045.09.063.136l7.178,21.422L42.737,2.5A3.646,3.646,0,0,1,47.369.2,3.7,3.7,0,0,1,49.644,4.856Z" transform="translate(50.967 0)" fill="#f7f7f7"/>
      <path id="Shape-5" data-name="Shape" d="M26.98,38.858a3.547,3.547,0,0,1-2.527-1.073,3.661,3.661,0,0,1-1.074-2.593V29.136H7.2v6.056a3.661,3.661,0,0,1-1.074,2.593A3.547,3.547,0,0,1,3.6,38.858,3.637,3.637,0,0,1,0,35.192V14.12A13.778,13.778,0,0,1,1.266,8.24,13.308,13.308,0,0,1,4.648,3.795,16.156,16.156,0,0,1,15.26,0,16.261,16.261,0,0,1,25.945,3.8a13.257,13.257,0,0,1,3.376,4.446A13.812,13.812,0,0,1,30.58,14.12V35.192a3.662,3.662,0,0,1-1.074,2.593A3.545,3.545,0,0,1,26.98,38.858ZM15.268,6.291c-3.9,0-8.059,2.071-8.059,7.883v8.21h16.17v-8.21C23.379,8.362,19.189,6.291,15.268,6.291Z" transform="translate(122.32 0)" fill="#f7f7f7"/>
      <path id="Path-5" data-name="Path" d="M31.713,3.393a3.262,3.262,0,0,1-.6,2.027L19.552,21.238V35.247a3.669,3.669,0,0,1-7.338,0V21.238L.6,5.42A3.245,3.245,0,0,1,0,3.393,3.409,3.409,0,0,1,3.4,0,3.28,3.28,0,0,1,6.3,1.475l9.582,12.913L25.412,1.475A3.343,3.343,0,0,1,28.314,0,3.409,3.409,0,0,1,31.713,3.393Z" transform="translate(172.155 0)" fill="#f7f7f7"/>
    </g>
  </g>
</svg>
