<svg id="logo" xmlns="http://www.w3.org/2000/svg" width="279" height="58" viewBox="0 0 279 58">
  <path id="Shape" d="M18.5,55A18.473,18.473,0,0,1,5.439,49.623,18.05,18.05,0,0,1,0,36.712V18.288A18.05,18.05,0,0,1,5.439,5.377a18.55,18.55,0,0,1,26.121,0A18.05,18.05,0,0,1,37,18.288V36.712A18.475,18.475,0,0,1,18.5,55ZM15.082,43.108h6.653V45.5a1.469,1.469,0,0,0,1.458,1.441A1.488,1.488,0,0,0,24.652,45.5V37.117a5.082,5.082,0,0,0-1.444-3.767,6.624,6.624,0,0,0-4.753-1.863c-3.048,0-6.288,1.973-6.288,5.63V45.5a1.469,1.469,0,0,0,1.458,1.441A1.451,1.451,0,0,0,15.082,45.5V43.109ZM9.387,27.3a.3.3,0,0,0-.163.055c-.02.011-.041.023-.065.035-.092.045-.092.137-.092.226v.675a.294.294,0,0,0,.056.162c.011.019.024.04.036.064.045.09.138.09.228.09h18l-2,1.892a.233.233,0,0,0-.092.18.292.292,0,0,0,.056.161c.011.019.024.04.036.064l.5.451a.236.236,0,0,0,.182.09.241.241,0,0,0,.183-.09l3.281-3.244a.224.224,0,0,0,0-.36L26.247,24.5a.241.241,0,0,0-.183-.09.236.236,0,0,0-.182.09l-.5.5a.339.339,0,0,0-.092.225.233.233,0,0,0,.092.18l2,1.892ZM14.536,8.063a1.515,1.515,0,0,0-1.5,1.487V21.982a1.515,1.515,0,0,0,1.5,1.487h7.883a1.515,1.515,0,0,0,1.5-1.487,1.493,1.493,0,0,0-1.5-1.441H16.04V9.55A1.515,1.515,0,0,0,14.536,8.063Zm7.245,32.342H15.128V37.162a2.96,2.96,0,0,1,1.031-2.438,3.662,3.662,0,0,1,2.3-.715,3.662,3.662,0,0,1,2.3.715,2.96,2.96,0,0,1,1.031,2.438V40.4Z" transform="translate(122 1)" fill="#fd5c48"/>
  <g id="Group" transform="translate(6 17)">
    <path id="Path" d="M13.516,17.477a1.861,1.861,0,0,1-1.853,1.852H1.853A1.861,1.861,0,0,1,0,17.477V1.852A1.832,1.832,0,0,1,1.853,0,1.861,1.861,0,0,1,3.707,1.852V15.626h7.956A1.861,1.861,0,0,1,13.516,17.477Z" transform="translate(0.362 0.226)" fill="#fd5c48"/>
    <path id="Shape-2" data-name="Shape" d="M9.538,19.6a9.568,9.568,0,0,1-6.566-2.732A9.742,9.742,0,0,1,0,9.8,9.742,9.742,0,0,1,2.972,2.732,9.568,9.568,0,0,1,9.538,0a9.637,9.637,0,0,1,6.606,2.732A9.725,9.725,0,0,1,19.122,9.8a9.725,9.725,0,0,1-2.978,7.068A9.637,9.637,0,0,1,9.538,19.6Zm0-15.988c-3.2,0-5.605,2.66-5.605,6.188s2.41,6.187,5.605,6.187,5.605-2.66,5.605-6.187S12.734,3.613,9.538,3.613Z" transform="translate(19.393 0.09)" fill="#fd5c48"/>
    <path id="Path-2" data-name="Path" d="M3.978,9.845a5.93,5.93,0,0,0,5.651,6.187,5.011,5.011,0,0,0,2.486-.768,1.988,1.988,0,0,1,.995-.316A1.861,1.861,0,0,1,14.963,16.8a2.011,2.011,0,0,1-.859,1.581A9.227,9.227,0,0,1,9.538,19.6,9.728,9.728,0,0,1,0,9.845,9.72,9.72,0,0,1,9.538,0,9.729,9.729,0,0,1,14.1,1.219,1.945,1.945,0,0,1,14.963,2.8,1.861,1.861,0,0,1,13.11,4.652a1.542,1.542,0,0,1-.995-.316,5.154,5.154,0,0,0-2.486-.768A6.1,6.1,0,0,0,3.978,9.845Z" transform="translate(45.432 0.045)" fill="#fd5c48"/>
    <path id="Shape-3" data-name="Shape" d="M13.833,19.374a1.855,1.855,0,0,1-1.853-1.806V14.542H3.707v3.026a1.854,1.854,0,0,1-3.707,0V7.045A6.639,6.639,0,0,1,2.379,1.9,8.332,8.332,0,0,1,7.775,0a8.577,8.577,0,0,1,5.532,1.9,6.524,6.524,0,0,1,2.379,5.148V17.568A1.855,1.855,0,0,1,13.833,19.374ZM7.82,3.116c-1.988,0-4.113,1.032-4.113,3.929v4.109H11.98V7.045C11.98,3.4,8.8,3.116,7.82,3.116Z" transform="translate(69.029 0.226)" fill="#fd5c48"/>
    <path id="Path-3" data-name="Path" d="M13.516,17.477h0a1.861,1.861,0,0,1-1.853,1.852H1.853A1.861,1.861,0,0,1,0,17.477H0V1.852A1.861,1.861,0,0,1,1.853,0,1.891,1.891,0,0,1,3.707,1.852V15.626h7.956A1.891,1.891,0,0,1,13.516,17.477Z" transform="translate(94.751 0.226)" fill="#fd5c48"/>
  </g>
  <g id="Group-2" data-name="Group" transform="translate(166 17)">
    <path id="Shape-4" data-name="Shape" d="M13.833,19.374a1.855,1.855,0,0,1-1.853-1.806V14.542H3.707v3.026a1.854,1.854,0,0,1-3.707,0V7.045A6.639,6.639,0,0,1,2.379,1.9,8.332,8.332,0,0,1,7.775,0a8.577,8.577,0,0,1,5.532,1.9,6.524,6.524,0,0,1,2.379,5.148V17.568A1.855,1.855,0,0,1,13.833,19.374ZM7.866,3.116c-1.989,0-4.114,1.032-4.114,3.929v4.109h8.273V7.045C12.025,3.4,8.842,3.116,7.866,3.116Z" transform="translate(0.407 0.226)" fill="#fd5c48"/>
    <g id="Path-4" data-name="Path">
      <path id="Path-5" data-name="Path" d="M24.868,2.416,19.579,18.177A1.788,1.788,0,0,1,17.816,19.4a1.847,1.847,0,0,1-1.763-1.219L12.481,7.61,8.91,18.177A1.788,1.788,0,0,1,7.147,19.4a1.847,1.847,0,0,1-1.763-1.219L.1,2.416a1.816,1.816,0,0,1,1.13-2.3A1.887,1.887,0,0,1,3.576,1.242l3.616,10.7,3.616-10.7a.044.044,0,0,1,.045-.045c.045-.09.045-.181.09-.226a.1.1,0,0,1,.09-.09c.045-.045.09-.135.136-.181l.09-.09L11.4.474c.045-.045.09-.045.136-.09a.235.235,0,0,1,.181-.09c.045-.045.09-.045.136-.09.045,0,.09-.045.136-.045h.045c.045,0,.136-.045.181-.045a.272.272,0,0,0,.181-.045h.362a.342.342,0,0,1,.181.045c.09.045.136,0,.181.045h.045c.045,0,.09.045.136.045s.09.045.136.09.136.045.181.09.09.045.136.09l.136.135.09.09c.045.045.09.135.136.181,0,.045.045.045.09.09.045.09.09.135.09.226a.044.044,0,0,0,.045.045l3.616,10.7,3.616-10.7A1.814,1.814,0,0,1,23.918.113,1.942,1.942,0,0,1,24.868,2.416Z" transform="translate(26.44 0.203)"/>
      <path id="Path-6" data-name="Path" d="M24.868,2.416,19.579,18.177A1.788,1.788,0,0,1,17.816,19.4a1.847,1.847,0,0,1-1.763-1.219L12.481,7.61,8.91,18.177A1.788,1.788,0,0,1,7.147,19.4a1.847,1.847,0,0,1-1.763-1.219L.1,2.416a1.816,1.816,0,0,1,1.13-2.3A1.887,1.887,0,0,1,3.576,1.242l3.616,10.7,3.616-10.7a.044.044,0,0,1,.045-.045c.045-.09.045-.181.09-.226a.1.1,0,0,1,.09-.09c.045-.045.09-.135.136-.181l.09-.09L11.4.474c.045-.045.09-.045.136-.09a.235.235,0,0,1,.181-.09c.045-.045.09-.045.136-.09.045,0,.09-.045.136-.045h.045c.045,0,.136-.045.181-.045a.272.272,0,0,0,.181-.045h.362a.342.342,0,0,1,.181.045c.09.045.136,0,.181.045h.045c.045,0,.09.045.136.045s.09.045.136.09.136.045.181.09.09.045.136.09l.136.135.09.09c.045.045.09.135.136.181,0,.045.045.045.09.09.045.09.09.135.09.226a.044.044,0,0,0,.045.045l3.616,10.7,3.616-10.7A1.814,1.814,0,0,1,23.918.113,1.942,1.942,0,0,1,24.868,2.416Z" transform="translate(26.44 0.203)" fill="#fd5c48"/>
    </g>
    <path id="Shape-5" data-name="Shape" d="M13.833,19.374a1.855,1.855,0,0,1-1.853-1.806V14.542H3.707v3.026a1.854,1.854,0,0,1-3.707,0V7.045A6.639,6.639,0,0,1,2.379,1.9,8.332,8.332,0,0,1,7.775,0a8.577,8.577,0,0,1,5.532,1.9,6.524,6.524,0,0,1,2.379,5.148V17.568A1.855,1.855,0,0,1,13.833,19.374ZM7.866,3.116c-1.989,0-4.114,1.032-4.114,3.929v4.109h8.273V7.045C12.025,3.4,8.842,3.116,7.866,3.116Z" transform="translate(61.57 0.226)" fill="#fd5c48"/>
    <path id="Path-7" data-name="Path" d="M15.958,1.671a1.459,1.459,0,0,1-.316.994L9.855,10.613v7a1.854,1.854,0,0,1-3.707,0v-7L.316,2.71A1.625,1.625,0,0,1,0,1.716,1.716,1.716,0,0,1,1.718,0,1.6,1.6,0,0,1,3.164.723L7.956,7.181,12.748.723A1.647,1.647,0,0,1,14.195,0,1.718,1.718,0,0,1,15.958,1.671Z" transform="translate(87.201 0.226)" fill="#fd5c48"/>
  </g>
</svg>
