<svg xmlns="http://www.w3.org/2000/svg" width="94.513" height="96.52" viewBox="0 0 94.513 96.52">
  <g id="icon2" transform="translate(0 -1)">
    <path id="Fill_1" data-name="Fill 1" d="M15.879,0H74.2L91.587,21.377,89.9,92.1.977,91.613,0,22.964Z" transform="translate(2.28 3.268)" fill="#dcb67b"/>
    <path id="Fill_2" data-name="Fill 2" d="M4.152.244,0,20.521.488,43,13,33.779,23.452,44.707V22.72L20.52,0Z" transform="translate(35.505 4.001)" fill="#f05d4f"/>
    <g id="Group_75" data-name="Group 75" transform="translate(0 0.519)">
      <path id="Fill_3" data-name="Fill 3" d="M91.564,95.52H1.948A1.971,1.971,0,0,1,0,93.53V23.88a.106.106,0,0,1,.006-.03.117.117,0,0,0,.006-.028,2,2,0,0,1,.133-.676.529.529,0,0,1,.04-.078c.011-.02.022-.038.031-.058l.031-.066a1.452,1.452,0,0,1,.126-.234L15.958.821A1.943,1.943,0,0,1,17.533,0H75.978a1.943,1.943,0,0,1,1.575.821L93.139,22.71a1.409,1.409,0,0,1,.125.233l.031.067c.009.019.019.036.029.054a.565.565,0,0,1,.042.082,1.984,1.984,0,0,1,.133.676.115.115,0,0,0,.006.028.106.106,0,0,1,.006.03V93.53A1.971,1.971,0,0,1,91.564,95.52ZM3.9,25.871h0V91.54h85.72V25.871H60.393V47.76a2,2,0,0,1-1.122,1.8,1.9,1.9,0,0,1-.825.189,1.932,1.932,0,0,1-1.248-.461L46.756,40.4,36.315,49.289a1.924,1.924,0,0,1-1.245.461,1.9,1.9,0,0,1-.828-.189,2,2,0,0,1-1.122-1.8V25.871H3.9Zm42.86,9.949A1.933,1.933,0,0,1,48,36.281L56.5,43.512V25.871H37.015V43.512l8.492-7.232A1.933,1.933,0,0,1,46.756,35.82ZM56.883,3.98l3.51,17.911H87.738L74.987,3.98h-18.1Zm-16.293,0L37.015,21.891H56.5L52.922,3.98H40.59Zm-22.065,0L5.774,21.891H33.119L36.63,3.98H18.525Z" transform="translate(0.5 0.98)" fill="#262626"/>
      <path id="Stroke_5" data-name="Stroke 5" d="M93.5,23.821a1.987,1.987,0,0,0-.133-.676,1.474,1.474,0,0,0-.072-.136,1.882,1.882,0,0,0-.155-.3L77.554.821A1.933,1.933,0,0,0,75.979,0H17.534a1.936,1.936,0,0,0-1.576.821L.373,22.71a2.029,2.029,0,0,0-.157.3c-.022.047-.052.087-.071.136a2.007,2.007,0,0,0-.133.676c0,.021-.012.038-.012.059V93.53a1.969,1.969,0,0,0,1.948,1.99H91.564a1.969,1.969,0,0,0,1.949-1.99V23.88C93.513,23.859,93.5,23.842,93.5,23.821Z" transform="translate(0.5 0.98)" fill="none" stroke="#505050" stroke-miterlimit="10" stroke-width="1" stroke-dasharray="11.782 11.782"/>
      <path id="Stroke_7" data-name="Stroke 7" d="M0,0H6L9.479,4.888" transform="translate(69.487 4.961)" fill="none" stroke="#505050" stroke-miterlimit="10" stroke-width="1"/>
      <path id="Stroke_9" data-name="Stroke 9" d="M2.52,0,6,4.888H0" transform="translate(82.238 17.983)" fill="none" stroke="#505050" stroke-miterlimit="10" stroke-width="1"/>
      <path id="Stroke_11" data-name="Stroke 11" d="M7.154,5.888h-6L0,0" transform="translate(59.739 16.983)" fill="none" stroke="#505050" stroke-miterlimit="10" stroke-width="1"/>
      <path id="Stroke_13" data-name="Stroke 13" d="M1.153,5.888,0,0H6" transform="translate(57.383 4.961)" fill="none" stroke="#505050" stroke-miterlimit="10" stroke-width="1"/>
      <path id="Stroke_15" data-name="Stroke 15" d="M0,5.884,1.174,0h6" transform="translate(39.916 4.96)" fill="none" stroke="#505050" stroke-miterlimit="10" stroke-width="1"/>
      <path id="Stroke_17" data-name="Stroke 17" d="M0,0H6L7.175,5.884" transform="translate(47.422 4.961)" fill="none" stroke="#505050" stroke-miterlimit="10" stroke-width="1"/>
      <path id="Stroke_19" data-name="Stroke 19" d="M4.825,0,6,5.884H0" transform="translate(50.997 16.986)" fill="none" stroke="#505050" stroke-miterlimit="10" stroke-width="1"/>
      <path id="Stroke_21" data-name="Stroke 21" d="M6,5.884H0L1.174,0" transform="translate(37.516 16.987)" fill="none" stroke="#505050" stroke-miterlimit="10" stroke-width="1"/>
      <path id="Stroke_23" data-name="Stroke 23" d="M0,6V0H6" transform="translate(37.516 26.851)" fill="none" stroke="#505050" stroke-miterlimit="10" stroke-width="1"/>
      <path id="Stroke_25" data-name="Stroke 25" d="M0,0H6V6" transform="translate(50.997 26.851)" fill="none" stroke="#505050" stroke-miterlimit="10" stroke-width="1"/>
      <path id="Stroke_27" data-name="Stroke 27" d="M4.568,0V6L0,2.11" transform="translate(52.429 38.492)" fill="none" stroke="#505050" stroke-miterlimit="10" stroke-width="1"/>
      <path id="Stroke_29" data-name="Stroke 29" d="M4.568,2.11,0,6V0" transform="translate(37.516 38.492)" fill="none" stroke="#505050" stroke-miterlimit="10" stroke-width="1"/>
      <path id="Stroke_31" data-name="Stroke 31" d="M0,4.888,3.48,0h6" transform="translate(15.545 4.96)" fill="none" stroke="#505050" stroke-miterlimit="10" stroke-width="1"/>
      <path id="Stroke_33" data-name="Stroke 33" d="M0,0H6L4.846,5.888" transform="translate(31.13 4.961)" fill="none" stroke="#505050" stroke-miterlimit="10" stroke-width="1"/>
      <path id="Stroke_35" data-name="Stroke 35" d="M7.154,0,6,5.888H0" transform="translate(27.619 16.983)" fill="none" stroke="#505050" stroke-miterlimit="10" stroke-width="1"/>
      <path id="Stroke_37" data-name="Stroke 37" d="M6,4.888H0L3.479,0" transform="translate(6.274 17.983)" fill="none" stroke="#505050" stroke-miterlimit="10" stroke-width="1"/>
      <path id="Stroke_39" data-name="Stroke 39" d="M6,0V6H0" transform="translate(84.116 86.52)" fill="none" stroke="#505050" stroke-miterlimit="10" stroke-width="1"/>
      <path id="Stroke_41" data-name="Stroke 41" d="M57.923.5H0" transform="translate(15.662 92.02)" fill="none" stroke="#505050" stroke-miterlimit="10" stroke-width="1" stroke-dasharray="10.531 10.531"/>
      <path id="Stroke_43" data-name="Stroke 43" d="M6,6H0V0" transform="translate(4.396 86.52)" fill="none" stroke="#505050" stroke-miterlimit="10" stroke-width="1"/>
      <path id="Stroke_45" data-name="Stroke 45" d="M.5,37.569V0" transform="translate(3.896 38.217)" fill="none" stroke="#505050" stroke-miterlimit="10" stroke-width="1" stroke-dasharray="10.734 10.734"/>
      <path id="Stroke_47" data-name="Stroke 47" d="M0,6V0H6" transform="translate(4.396 26.851)" fill="none" stroke="#505050" stroke-miterlimit="10" stroke-width="1"/>
      <path id="Stroke_49" data-name="Stroke 49" d="M0,0H6V6" transform="translate(27.619 26.851)" fill="none" stroke="#505050" stroke-miterlimit="10" stroke-width="1"/>
      <path id="Stroke_51" data-name="Stroke 51" d="M0,0V6.543a1.991,1.991,0,0,0,1.122,1.8A1.914,1.914,0,0,0,3.2,8.073L5.51,6.1" transform="translate(33.619 42.197)" fill="none" stroke="#505050" stroke-miterlimit="10" stroke-width="1" stroke-dasharray="9.346 9.346"/>
      <path id="Stroke_53" data-name="Stroke 53" d="M0,3.889,4.568,0l4.57,3.889" transform="translate(42.688 41.381)" fill="none" stroke="#505050" stroke-miterlimit="10" stroke-width="1"/>
      <path id="Stroke_55" data-name="Stroke 55" d="M0,13.184a1.9,1.9,0,0,0,.551-.168,1.993,1.993,0,0,0,1.123-1.8V0" transform="translate(59.22 37.526)" fill="none" stroke="#505050" stroke-miterlimit="10" stroke-width="1" stroke-dasharray="9.347 9.347"/>
      <path id="Stroke_57" data-name="Stroke 57" d="M0,6V0H6" transform="translate(60.894 26.851)" fill="none" stroke="#505050" stroke-miterlimit="10" stroke-width="1"/>
      <path id="Stroke_59" data-name="Stroke 59" d="M0,0H6V6" transform="translate(84.116 26.851)" fill="none" stroke="#505050" stroke-miterlimit="10" stroke-width="1"/>
      <path id="Stroke_61" data-name="Stroke 61" d="M.5,0V37.568" transform="translate(89.616 43.585)" fill="none" stroke="#505050" stroke-miterlimit="10" stroke-width="1" stroke-dasharray="10.734 10.734"/>
      <path id="Fill_63" data-name="Fill 63" d="M1.948,3.98H15.585a1.968,1.968,0,0,0,1.948-1.99A1.968,1.968,0,0,0,15.585,0H1.948A1.968,1.968,0,0,0,0,1.99,1.968,1.968,0,0,0,1.948,3.98" transform="translate(10.241 74.61)" fill="#262626"/>
      <path id="Stroke_65" data-name="Stroke 65" d="M1.948,3.98H15.585a1.968,1.968,0,0,0,1.948-1.99A1.968,1.968,0,0,0,15.585,0H1.948A1.968,1.968,0,0,0,0,1.99,1.968,1.968,0,0,0,1.948,3.98Z" transform="translate(10.241 74.61)" fill="none" stroke="#505050" stroke-miterlimit="10" stroke-width="1" stroke-dasharray="9.908 9.908"/>
      <path id="Fill_67" data-name="Fill 67" d="M1.948,3.98H15.585a1.968,1.968,0,0,0,1.948-1.99A1.968,1.968,0,0,0,15.585,0H1.948A1.968,1.968,0,0,0,0,1.99,1.968,1.968,0,0,0,1.948,3.98" transform="translate(10.241 66.65)" fill="#262626"/>
      <path id="Stroke_69" data-name="Stroke 69" d="M1.948,3.98H15.585a1.968,1.968,0,0,0,1.948-1.99A1.968,1.968,0,0,0,15.585,0H1.948A1.968,1.968,0,0,0,0,1.99,1.968,1.968,0,0,0,1.948,3.98Z" transform="translate(10.241 66.65)" fill="none" stroke="#505050" stroke-miterlimit="10" stroke-width="1" stroke-dasharray="9.908 9.908"/>
      <path id="Fill_71" data-name="Fill 71" d="M25.327,0H1.949A1.969,1.969,0,0,0,0,1.99,1.969,1.969,0,0,0,1.949,3.98H25.327a1.969,1.969,0,0,0,1.948-1.99A1.969,1.969,0,0,0,25.327,0" transform="translate(10.24 82.57)" fill="#262626"/>
      <path id="Stroke_73" data-name="Stroke 73" d="M25.327,0H1.949A1.969,1.969,0,0,0,0,1.99,1.969,1.969,0,0,0,1.949,3.98H25.327a1.969,1.969,0,0,0,1.948-1.99A1.969,1.969,0,0,0,25.327,0Z" transform="translate(10.24 82.57)" fill="none" stroke="#505050" stroke-miterlimit="10" stroke-width="1" stroke-dasharray="9.852 9.852"/>
    </g>
  </g>
</svg>
