<svg id="icon1" xmlns="http://www.w3.org/2000/svg" xmlns:xlink="http://www.w3.org/1999/xlink" width="137.411" height="128.311" viewBox="0 0 137.411 128.311">
  <defs>
    <clipPath id="clip-path">
      <path id="Clip_34" data-name="Clip 34" d="M0,128.311H137.4V0H0Z" fill="none"/>
    </clipPath>
  </defs>
  <path id="Fill_1" data-name="Fill 1" d="M5.8,12c7.721,0,7.734-12,0-12s-7.734,12,0,12" transform="translate(91.532 107.653)" fill="#dcb67b"/>
  <path id="Fill_3" data-name="Fill 3" d="M13.824,13.1q6.376-.008,12.74-.423c4.146-.277,8.057-1.524,12.055-2.55-.4-2.612,1.345-3.863-5.786-2.089a14.791,14.791,0,0,1-6.55-.064C19.481,6.739,13.091-1.8,5.669.343s-7.691,11.565,0,12a46.1,46.1,0,0,1,7.354,1.1,1.046,1.046,0,0,1,.8-.338" transform="translate(93.764 113.089)" fill="#dcb67b"/>
  <path id="Fill_5" data-name="Fill 5" d="M26.714,22.957c-1.912,0-3.757-.036-5.326-.108-5.754-.265-16.3-.357-16.4-.358a1.09,1.09,0,0,1-1.011-.708,50.307,50.307,0,0,1-2.394-9.4c-.255-1.859-.6-3.878-.9-5.66-.768-4.506-.853-5.083-.4-5.593C.911.273,2.947-.477,8.834.375c4.879.707,8.35,3.38,11.7,5.966A47.01,47.01,0,0,0,25.4,9.769c.263.153.424.261.556.35a2.081,2.081,0,0,0,.582.29,1.088,1.088,0,1,1-.765,2.038,4.117,4.117,0,0,1-1.031-.522c-.1-.07-.231-.156-.438-.277a48.366,48.366,0,0,1-5.1-3.583C15.933,5.54,12.837,3.154,8.522,2.53c-4.06-.588-5.732-.3-6.32-.107.083.79.366,2.444.619,3.935.308,1.8.655,3.836.915,5.73a47.786,47.786,0,0,0,2.031,8.234c2.545.026,10.837.127,15.721.353,6.125.282,15.575-.034,17.74-.595A7.208,7.208,0,0,0,44.347,14a1.088,1.088,0,0,1,2.171.153,9.346,9.346,0,0,1-6.744,8.031c-1.926.5-7.754.771-13.06.771" transform="translate(90.315 103.848)" fill="#010202"/>
  <path id="Stroke_7" data-name="Stroke 7" d="M26.714,22.957c-1.912,0-3.757-.036-5.326-.108-5.754-.265-16.3-.357-16.4-.358a1.09,1.09,0,0,1-1.011-.708,50.307,50.307,0,0,1-2.394-9.4c-.255-1.859-.6-3.878-.9-5.66-.768-4.506-.853-5.083-.4-5.593C.911.273,2.947-.477,8.834.375c4.879.707,8.35,3.38,11.7,5.966A47.01,47.01,0,0,0,25.4,9.769c.263.153.424.261.556.35a2.081,2.081,0,0,0,.582.29,1.088,1.088,0,1,1-.765,2.038,4.117,4.117,0,0,1-1.031-.522c-.1-.07-.231-.156-.438-.277a48.366,48.366,0,0,1-5.1-3.583C15.933,5.54,12.837,3.154,8.522,2.53c-4.06-.588-5.732-.3-6.32-.107.083.79.366,2.444.619,3.935.308,1.8.655,3.836.915,5.73a47.786,47.786,0,0,0,2.031,8.234c2.545.026,10.837.127,15.721.353,6.125.282,15.575-.034,17.74-.595A7.208,7.208,0,0,0,44.347,14a1.088,1.088,0,0,1,2.171.153,9.346,9.346,0,0,1-6.744,8.031C37.848,22.686,32.02,22.957,26.714,22.957Z" transform="translate(90.315 103.848)" fill="none" stroke="#505050" stroke-miterlimit="10" stroke-width="0.75"/>
  <path id="Fill_9" data-name="Fill 9" d="M30.7,16.621c-3.167,0-4.681-.753-8.792-3.283-2.424-1.49-4.317-2.8-5.987-3.964C14.3,8.251,12.9,7.281,11.316,6.338a25.889,25.889,0,0,0-5.451-2.09c-2.208-.67-4.291-1.3-5.487-2.335A1.088,1.088,0,1,1,1.8.265c.848.731,2.8,1.326,4.7,1.9a27.343,27.343,0,0,1,5.932,2.3c1.653.982,3.149,2.02,4.732,3.119,1.648,1.143,3.515,2.439,5.887,3.9,4.552,2.8,5.289,3.149,9.428,2.9,4.988-.3,10.384-1.582,11.477-2.438a12.653,12.653,0,0,0-3.258-.151c-.728.032-1.535.1-2.4.175-.722.061-1.481.125-2.268.176A1.088,1.088,0,1,1,35.89,9.97c.771-.05,1.515-.113,2.221-.173.9-.076,1.732-.147,2.488-.18,3.43-.152,5.119.276,5.647,1.426a1.986,1.986,0,0,1-.6,2.291c-1.794,1.921-9.706,3.015-13.04,3.219-.707.043-1.336.068-1.91.068" transform="translate(90.625 105.47)" fill="#010202"/>
  <path id="Stroke_11" data-name="Stroke 11" d="M30.7,16.621c-3.167,0-4.681-.753-8.792-3.283-2.424-1.49-4.317-2.8-5.987-3.964C14.3,8.251,12.9,7.281,11.316,6.338a25.889,25.889,0,0,0-5.451-2.09c-2.208-.67-4.291-1.3-5.487-2.335A1.088,1.088,0,1,1,1.8.265c.848.731,2.8,1.326,4.7,1.9a27.343,27.343,0,0,1,5.932,2.3c1.653.982,3.149,2.02,4.732,3.119,1.648,1.143,3.515,2.439,5.887,3.9,4.552,2.8,5.289,3.149,9.428,2.9,4.988-.3,10.384-1.582,11.477-2.438a12.653,12.653,0,0,0-3.258-.151c-.728.032-1.535.1-2.4.175-.722.061-1.481.125-2.268.176A1.088,1.088,0,1,1,35.89,9.97c.771-.05,1.515-.113,2.221-.173.9-.076,1.732-.147,2.488-.18,3.43-.152,5.119.276,5.647,1.426a1.986,1.986,0,0,1-.6,2.291c-1.794,1.921-9.706,3.015-13.04,3.219C31.9,16.6,31.272,16.621,30.7,16.621Z" transform="translate(90.625 105.47)" fill="none" stroke="#505050" stroke-miterlimit="10" stroke-width="0.75"/>
  <path id="Fill_13" data-name="Fill 13" d="M1.134,10.263A1.088,1.088,0,0,1,.049,9.247,12.731,12.731,0,0,1,2.232.476,1.088,1.088,0,0,1,4.03,1.7,10.611,10.611,0,0,0,2.222,9.1a1.09,1.09,0,0,1-1.014,1.159c-.024,0-.049,0-.074,0" transform="translate(100.58 101.022)" fill="#010202"/>
  <path id="Stroke_15" data-name="Stroke 15" d="M1.134,10.263A1.088,1.088,0,0,1,.049,9.247,12.731,12.731,0,0,1,2.232.476,1.088,1.088,0,0,1,4.03,1.7,10.611,10.611,0,0,0,2.222,9.1a1.09,1.09,0,0,1-1.014,1.159C1.184,10.263,1.159,10.263,1.134,10.263Z" transform="translate(100.58 101.022)" fill="none" stroke="#505050" stroke-miterlimit="10" stroke-width="0.75"/>
  <path id="Fill_17" data-name="Fill 17" d="M18.875,10.531a1.087,1.087,0,0,1-.131-.007h-.01l-.415,0a40.88,40.88,0,0,1-7.473-.685c-2.04-.381-7.076-1.6-9.775-4.625a3.711,3.711,0,0,1-.95-3.384A2.489,2.489,0,0,1,2.069.166,6.307,6.307,0,0,1,3.476,0C5.609,0,7.142,1.213,8.495,2.283l.011.009c.484.384,1.033.819,1.6,1.183s1.175.791,1.9,1.308c2.138,1.513,4.561,3.228,6.854,3.561a38.177,38.177,0,0,0,4.32-.321,1.106,1.106,0,0,1,.143-.009,1.088,1.088,0,0,1,.143,2.168,39.85,39.85,0,0,1-4.414.336A.966.966,0,0,1,18.875,10.531ZM3.492,2.173a4.089,4.089,0,0,0-.933.114c-.146.033-.327.1-.362.2a1.7,1.7,0,0,0,.5,1.275c2.317,2.6,7.129,3.668,8.549,3.933.529.1,1.027.181,1.521.252-.7-.461-1.4-.956-2.016-1.392C10.107,6.1,9.5,5.673,8.928,5.306A21.687,21.687,0,0,1,7.154,4C5.72,2.862,4.758,2.173,3.492,2.173Z" transform="translate(93.059 93.476)" fill="#010202"/>
  <path id="Stroke_19" data-name="Stroke 19" d="M18.875,10.531a1.087,1.087,0,0,1-.131-.007h-.01l-.415,0a40.88,40.88,0,0,1-7.473-.685c-2.04-.381-7.076-1.6-9.775-4.625a3.711,3.711,0,0,1-.95-3.384A2.489,2.489,0,0,1,2.069.166,6.307,6.307,0,0,1,3.476,0C5.609,0,7.142,1.213,8.495,2.283l.011.009c.484.384,1.033.819,1.6,1.183s1.175.791,1.9,1.308c2.138,1.513,4.561,3.228,6.854,3.561a38.177,38.177,0,0,0,4.32-.321,1.106,1.106,0,0,1,.143-.009,1.088,1.088,0,0,1,.143,2.168,39.85,39.85,0,0,1-4.414.336A.966.966,0,0,1,18.875,10.531ZM3.492,2.173a4.089,4.089,0,0,0-.933.114c-.146.033-.327.1-.362.2a1.7,1.7,0,0,0,.5,1.275c2.317,2.6,7.129,3.668,8.549,3.933.529.1,1.027.181,1.521.252-.7-.461-1.4-.956-2.016-1.392C10.107,6.1,9.5,5.673,8.928,5.306A21.687,21.687,0,0,1,7.154,4C5.72,2.862,4.758,2.173,3.492,2.173Z" transform="translate(93.059 93.476)" fill="none" stroke="#505050" stroke-miterlimit="10" stroke-width="0.75"/>
  <path id="Fill_21" data-name="Fill 21" d="M1.171,11.343A1.09,1.09,0,0,1,.1,10.456C-.389,7.845.85,1.821,4.876.089a1.088,1.088,0,1,1,.859,2C2.861,3.325,1.9,8.227,2.242,10.053a1.087,1.087,0,0,1-.868,1.27,1,1,0,0,1-.2.02" transform="translate(115.255 109.155)" fill="#010202"/>
  <path id="Stroke_23" data-name="Stroke 23" d="M1.171,11.343A1.09,1.09,0,0,1,.1,10.456C-.389,7.845.85,1.821,4.876.089a1.088,1.088,0,1,1,.859,2C2.861,3.325,1.9,8.227,2.242,10.053a1.087,1.087,0,0,1-.868,1.27A1,1,0,0,1,1.171,11.343Z" transform="translate(115.255 109.155)" fill="none" stroke="#505050" stroke-miterlimit="10" stroke-width="0.75"/>
  <path id="Fill_25" data-name="Fill 25" d="M1.277,10.345a1.088,1.088,0,0,1-1.071-.9C-.47,5.579.576,1.523,2.536.4A3.053,3.053,0,0,1,5.382.3,6.78,6.78,0,0,1,8.726,5a1.088,1.088,0,1,1-2.133.434A4.722,4.722,0,0,0,4.484,2.285a.875.875,0,0,0-.869.008c-.785.448-1.861,3.362-1.264,6.776a1.089,1.089,0,0,1-.885,1.259,1.116,1.116,0,0,1-.189.017" transform="translate(125.321 110.782)" fill="#010202"/>
  <path id="Stroke_27" data-name="Stroke 27" d="M1.277,10.345a1.088,1.088,0,0,1-1.071-.9C-.47,5.579.576,1.523,2.536.4A3.053,3.053,0,0,1,5.382.3,6.78,6.78,0,0,1,8.726,5a1.088,1.088,0,1,1-2.133.434A4.722,4.722,0,0,0,4.484,2.285a.875.875,0,0,0-.869.008c-.785.448-1.861,3.362-1.264,6.776a1.089,1.089,0,0,1-.885,1.259A1.116,1.116,0,0,1,1.277,10.345Z" transform="translate(125.321 110.782)" fill="none" stroke="#505050" stroke-miterlimit="10" stroke-width="0.75"/>
  <path id="Fill_29" data-name="Fill 29" d="M9.717,3.884A1.1,1.1,0,0,1,9.5,3.863L.878,2.155A1.088,1.088,0,1,1,1.3.02L9.927,1.728a1.088,1.088,0,0,1-.21,2.156" transform="translate(119.561 109.065)" fill="#010202"/>
  <path id="Stroke_31" data-name="Stroke 31" d="M9.717,3.884A1.1,1.1,0,0,1,9.5,3.863L.878,2.155A1.088,1.088,0,1,1,1.3.02L9.927,1.728a1.088,1.088,0,0,1-.21,2.156Z" transform="translate(119.561 109.065)" fill="none" stroke="#505050" stroke-miterlimit="10" stroke-width="0.75"/>
  <path id="Clip_34-2" data-name="Clip 34" d="M0,128.311H137.4V0H0Z" fill="none"/>
  <g id="icon1-2" data-name="icon1" clip-path="url(#clip-path)">
    <path id="Fill_33" data-name="Fill 33" d="M0,6.873H48.167V0H0Z" transform="translate(16.701 70.754)" fill="#f05d4f"/>
    <path id="Fill_35" data-name="Fill 35" d="M0,11.433v6.133L24.066,7.047,21.1,0Z" transform="translate(3.205 4.622)" fill="#f05d4f"/>
    <path id="Fill_36" data-name="Fill 36" d="M24.066,11.433v6.133L0,7.047,2.969,0Z" transform="translate(54.997 4.622)" fill="#f05d4f"/>
    <path id="Fill_37" data-name="Fill 37" d="M16.513,8.036C9.193,8.036,2.167,5.4.169,1.906A1.273,1.273,0,0,1,2.379.642C3.713,2.974,9.494,5.49,16.513,5.49c7.079,0,13.585-1.935,15.473-4.6a1.273,1.273,0,1,1,2.077,1.472C31.289,6.282,23.25,8.036,16.513,8.036" transform="translate(24.063 3.477)" fill="#010202"/>
    <path id="Stroke_38" data-name="Stroke 38" d="M16.513,8.036C9.193,8.036,2.167,5.4.169,1.906A1.273,1.273,0,0,1,2.379.642C3.713,2.974,9.494,5.49,16.513,5.49c7.079,0,13.585-1.935,15.473-4.6a1.273,1.273,0,1,1,2.077,1.472C31.289,6.282,23.25,8.036,16.513,8.036Z" transform="translate(24.063 3.477)" fill="none" stroke="#505050" stroke-miterlimit="10" stroke-width="0.877"/>
    <path id="Fill_39" data-name="Fill 39" d="M16.261,70.466a1.274,1.274,0,0,1-1.27-1.2A196.925,196.925,0,0,0,12.67,48.123c-1.462-7.517-3.323-7.979-3.934-8.131-.941-.235-1.716-.429-8.7-27.866a1.274,1.274,0,0,1,.693-1.467C23.474,0,24.36,0,24.694,0a1.273,1.273,0,0,1,.174,2.534c-1.425.4-13.879,6.139-22.1,9.984,2.811,11,6.067,22.9,7.046,25.142,1.9.66,3.923,2.6,5.358,9.977a195.369,195.369,0,0,1,2.362,21.487,1.272,1.272,0,0,1-1.2,1.34c-.023,0-.047,0-.07,0" transform="translate(0.439 3.537)" fill="#010202"/>
    <path id="Stroke_40" data-name="Stroke 40" d="M16.261,70.466a1.274,1.274,0,0,1-1.27-1.2A196.925,196.925,0,0,0,12.67,48.123c-1.462-7.517-3.323-7.979-3.934-8.131-.941-.235-1.716-.429-8.7-27.866a1.274,1.274,0,0,1,.693-1.467C23.474,0,24.36,0,24.694,0a1.273,1.273,0,0,1,.174,2.534c-1.425.4-13.879,6.139-22.1,9.984,2.811,11,6.067,22.9,7.046,25.142,1.9.66,3.923,2.6,5.358,9.977a195.369,195.369,0,0,1,2.362,21.487,1.272,1.272,0,0,1-1.2,1.34C16.308,70.466,16.284,70.466,16.261,70.466Z" transform="translate(0.439 3.537)" fill="none" stroke="#505050" stroke-miterlimit="10" stroke-width="0.877"/>
    <path id="Fill_41" data-name="Fill 41" d="M19.541,68.687a1.273,1.273,0,0,1-1.273-1.273v-31.4L.149,1.87A1.273,1.273,0,0,1,2.4.677L20.666,35.105a1.27,1.27,0,0,1,.149.6V67.414a1.273,1.273,0,0,1-1.274,1.273" transform="translate(23.625 4.473)" fill="#010202"/>
    <path id="Stroke_42" data-name="Stroke 42" d="M19.541,68.687a1.273,1.273,0,0,1-1.273-1.273v-31.4L.149,1.87A1.273,1.273,0,0,1,2.4.677L20.666,35.105a1.27,1.27,0,0,1,.149.6V67.414A1.273,1.273,0,0,1,19.541,68.687Z" transform="translate(23.625 4.473)" fill="none" stroke="#505050" stroke-miterlimit="10" stroke-width="0.877"/>
    <path id="Fill_43" data-name="Fill 43" d="M1.273,32.292a1.256,1.256,0,0,1-.593-.148,1.273,1.273,0,0,1-.532-1.72L15.84.68a1.273,1.273,0,1,1,2.252,1.188L2.4,31.612a1.272,1.272,0,0,1-1.127.68" transform="translate(40.254 3.77)" fill="#010202"/>
    <path id="Stroke_44" data-name="Stroke 44" d="M1.273,32.292a1.256,1.256,0,0,1-.593-.148,1.273,1.273,0,0,1-.532-1.72L15.84.68a1.273,1.273,0,1,1,2.252,1.188L2.4,31.612A1.272,1.272,0,0,1,1.273,32.292Z" transform="translate(40.254 3.77)" fill="none" stroke="#505050" stroke-miterlimit="10" stroke-width="0.877"/>
    <path id="Fill_45" data-name="Fill 45" d="M50.131,8.87H1.274A1.275,1.275,0,0,1,0,7.6V1.273A1.275,1.275,0,0,1,1.274,0H50.131A1.274,1.274,0,0,1,51.4,1.273V7.6A1.275,1.275,0,0,1,50.131,8.87ZM2.548,2.546V6.323H48.857V2.546Z" transform="translate(15.427 70.754)" fill="#010202"/>
    <path id="Stroke_46" data-name="Stroke 46" d="M50.131,8.87H1.274A1.275,1.275,0,0,1,0,7.6V1.273A1.275,1.275,0,0,1,1.274,0H50.131A1.274,1.274,0,0,1,51.4,1.273V7.6A1.275,1.275,0,0,1,50.131,8.87ZM2.548,2.546V6.323H48.857V2.546Z" transform="translate(15.427 70.754)" fill="none" stroke="#505050" stroke-miterlimit="10" stroke-width="0.877"/>
    <path id="Fill_47" data-name="Fill 47" d="M1.328,50.326a1.279,1.279,0,0,1-.7-.2c-.659-.426-1.057-.683.124-12.1.468-4.515,1.506-13.274,3.2-21.207A60.4,60.4,0,0,1,10.078.63a1.273,1.273,0,0,1,2.2,1.286A58.918,58.918,0,0,0,6.448,17.349,219.563,219.563,0,0,0,2.549,47.7c2.889-.155,10.355-.206,30.413.062L34.09,34.714a1.273,1.273,0,1,1,2.536.22L35.4,49.162a1.272,1.272,0,0,1-1.268,1.164H34.11c-11.629-.16-30.55-.315-32.386-.061a1.3,1.3,0,0,1-.4.061" transform="translate(5.525 77.547)" fill="#010202"/>
    <path id="Stroke_48" data-name="Stroke 48" d="M1.328,50.326a1.279,1.279,0,0,1-.7-.2c-.659-.426-1.057-.683.124-12.1.468-4.515,1.506-13.274,3.2-21.207A60.4,60.4,0,0,1,10.078.63a1.273,1.273,0,0,1,2.2,1.286A58.918,58.918,0,0,0,6.448,17.349,219.563,219.563,0,0,0,2.549,47.7c2.889-.155,10.355-.206,30.413.062L34.09,34.714a1.273,1.273,0,1,1,2.536.22L35.4,49.162a1.272,1.272,0,0,1-1.268,1.164H34.11c-11.629-.16-30.55-.315-32.386-.061A1.3,1.3,0,0,1,1.328,50.326Z" transform="translate(5.525 77.547)" fill="none" stroke="#505050" stroke-miterlimit="10" stroke-width="0.877"/>
    <path id="Fill_49" data-name="Fill 49" d="M1.272,18A1.274,1.274,0,0,1,1,15.479C7.962,13.981,13.24,5.913,14.617.934a1.273,1.273,0,1,1,2.454.678C15.483,7.357,9.616,16.229,1.542,17.969a1.312,1.312,0,0,1-.27.029" transform="translate(9.572 78.724)" fill="#010202"/>
    <path id="Stroke_50" data-name="Stroke 50" d="M1.272,18A1.274,1.274,0,0,1,1,15.479C7.962,13.981,13.24,5.913,14.617.934a1.273,1.273,0,1,1,2.454.678C15.483,7.357,9.616,16.229,1.542,17.969A1.312,1.312,0,0,1,1.272,18Z" transform="translate(9.572 78.724)" fill="none" stroke="#505050" stroke-miterlimit="10" stroke-width="0.877"/>
    <path id="Fill_51" data-name="Fill 51" d="M9.45,70.432c-.023,0-.047,0-.07,0a1.272,1.272,0,0,1-1.2-1.34A195.369,195.369,0,0,1,10.54,47.6c1.443-7.415,3.479-9.339,5.359-9.982.981-2.246,4.232-14.133,7.041-25.124L.747,2.433A1.274,1.274,0,0,1,1.8.114l23.163,10.5a1.272,1.272,0,0,1,.707,1.473c-6.979,27.437-7.754,27.632-8.653,27.856-.654.162-2.515.625-3.977,8.142A196.446,196.446,0,0,0,10.72,69.228a1.274,1.274,0,0,1-1.27,1.2" transform="translate(56.062 3.477)" fill="#010202"/>
    <path id="Stroke_52" data-name="Stroke 52" d="M9.45,70.432c-.023,0-.047,0-.07,0a1.272,1.272,0,0,1-1.2-1.34A195.369,195.369,0,0,1,10.54,47.6c1.443-7.415,3.479-9.339,5.359-9.982.981-2.246,4.232-14.133,7.041-25.124L.747,2.433A1.274,1.274,0,0,1,1.8.114l23.163,10.5a1.272,1.272,0,0,1,.707,1.473c-6.979,27.437-7.754,27.632-8.653,27.856-.654.162-2.515.625-3.977,8.142A196.446,196.446,0,0,0,10.72,69.228,1.274,1.274,0,0,1,9.45,70.432Z" transform="translate(56.062 3.477)" fill="none" stroke="#505050" stroke-miterlimit="10" stroke-width="0.877"/>
    <path id="Fill_53" data-name="Fill 53" d="M35.562,50.325H2.772a1.273,1.273,0,0,1-1.266-1.141L.007,34.815a1.274,1.274,0,0,1,2.534-.263L3.919,47.779h30.3c-.268-4.411-1.292-18.88-3.762-30.43A58.959,58.959,0,0,0,24.625,1.916,1.273,1.273,0,0,1,26.823.63a60.326,60.326,0,0,1,6.119,16.185c2.982,13.937,3.883,31.994,3.892,32.176a1.275,1.275,0,0,1-1.272,1.334" transform="translate(39.786 77.452)" fill="#010202"/>
    <path id="Stroke_54" data-name="Stroke 54" d="M35.562,50.325H2.772a1.273,1.273,0,0,1-1.266-1.141L.007,34.815a1.274,1.274,0,0,1,2.534-.263L3.919,47.779h30.3c-.268-4.411-1.292-18.88-3.762-30.43A58.959,58.959,0,0,0,24.625,1.916,1.273,1.273,0,0,1,26.823.63a60.326,60.326,0,0,1,6.119,16.185c2.982,13.937,3.883,31.994,3.892,32.176a1.275,1.275,0,0,1-1.272,1.334Z" transform="translate(39.786 77.452)" fill="none" stroke="#505050" stroke-miterlimit="10" stroke-width="0.877"/>
    <path id="Fill_55" data-name="Fill 55" d="M15.845,18a1.319,1.319,0,0,1-.27-.029C7.5,16.23,1.634,7.357.047,1.612A1.272,1.272,0,1,1,2.5.934C3.878,5.915,9.155,13.981,16.112,15.479A1.274,1.274,0,0,1,15.845,18" transform="translate(55.523 78.631)" fill="#010202"/>
    <path id="Stroke_56" data-name="Stroke 56" d="M15.845,18a1.319,1.319,0,0,1-.27-.029C7.5,16.23,1.634,7.357.047,1.612A1.272,1.272,0,1,1,2.5.934C3.878,5.915,9.155,13.981,16.112,15.479A1.274,1.274,0,0,1,15.845,18Z" transform="translate(55.523 78.631)" fill="none" stroke="#505050" stroke-miterlimit="10" stroke-width="0.877"/>
    <path id="Fill_57" data-name="Fill 57" d="M1.274,26.608A1.274,1.274,0,0,1,0,25.335V1.273a1.274,1.274,0,0,1,2.548,0V25.335a1.274,1.274,0,0,1-1.274,1.273" transform="translate(41.699 77.605)" fill="#010202"/>
    <path id="Stroke_58" data-name="Stroke 58" d="M1.274,26.608A1.274,1.274,0,0,1,0,25.335V1.273a1.274,1.274,0,0,1,2.548,0V25.335A1.274,1.274,0,0,1,1.274,26.608Z" transform="translate(41.699 77.605)" fill="none" stroke="#505050" stroke-miterlimit="10" stroke-width="0.877"/>
    <path id="Fill_59" data-name="Fill 59" d="M1.275,13.068a1.274,1.274,0,0,1-.522-2.436L24.216.113a1.273,1.273,0,0,1,1.042,2.324L1.795,12.956a1.266,1.266,0,0,1-.52.112" transform="translate(2.013 9.232)" fill="#010202"/>
    <path id="Stroke_60" data-name="Stroke 60" d="M1.275,13.068a1.274,1.274,0,0,1-.522-2.436L24.216.113a1.273,1.273,0,0,1,1.042,2.324L1.795,12.956A1.266,1.266,0,0,1,1.275,13.068Z" transform="translate(2.013 9.232)" fill="none" stroke="#505050" stroke-miterlimit="10" stroke-width="0.877"/>
    <path id="Fill_61" data-name="Fill 61" d="M24.737,13.067a1.266,1.266,0,0,1-.52-.112L.753,2.436A1.273,1.273,0,0,1,1.795.112L25.259,10.631a1.274,1.274,0,0,1-.522,2.436" transform="translate(53.472 9.233)" fill="#010202"/>
    <path id="Stroke_62" data-name="Stroke 62" d="M24.737,13.067a1.266,1.266,0,0,1-.52-.112L.753,2.436A1.273,1.273,0,0,1,1.795.112L25.259,10.631a1.274,1.274,0,0,1-.522,2.436Z" transform="translate(53.472 9.233)" fill="none" stroke="#505050" stroke-miterlimit="10" stroke-width="0.877"/>
    <path id="Fill_63" data-name="Fill 63" d="M.276,0H39.727S42.559,33.979,19.38,33.979.276,0,.276,0" transform="translate(92.659 26.189)" fill="#f05d4f"/>
    <path id="Fill_64" data-name="Fill 64" d="M21.754,22.841A21.778,21.778,0,0,1,0,1.088a1.089,1.089,0,0,1,2.178,0,19.576,19.576,0,1,0,39.152,0,1.089,1.089,0,0,1,2.178,0A21.778,21.778,0,0,1,21.754,22.841" transform="translate(90.284 32.72)" fill="#010202"/>
    <path id="Stroke_65" data-name="Stroke 65" d="M21.754,22.841A21.778,21.778,0,0,1,0,1.088a1.089,1.089,0,0,1,2.178,0,19.576,19.576,0,1,0,39.152,0,1.089,1.089,0,0,1,2.178,0A21.778,21.778,0,0,1,21.754,22.841Z" transform="translate(90.284 32.72)" fill="none" stroke="#505050" stroke-miterlimit="10" stroke-width="0.75"/>
    <path id="Fill_66" data-name="Fill 66" d="M21.754,35.85A21.779,21.779,0,0,1,0,14.1V1.088A1.09,1.09,0,0,1,1.089,0h41.33a1.09,1.09,0,0,1,1.089,1.088V14.1A21.779,21.779,0,0,1,21.754,35.85ZM2.178,2.176V14.1a19.576,19.576,0,1,0,39.152,0V2.176Z" transform="translate(90.284 24.318)" fill="#010202"/>
    <path id="Stroke_67" data-name="Stroke 67" d="M21.754,35.85A21.779,21.779,0,0,1,0,14.1V1.088A1.09,1.09,0,0,1,1.089,0h41.33a1.09,1.09,0,0,1,1.089,1.088V14.1A21.779,21.779,0,0,1,21.754,35.85ZM2.178,2.176V14.1a19.576,19.576,0,1,0,39.152,0V2.176Z" transform="translate(90.284 24.318)" fill="none" stroke="#505050" stroke-miterlimit="10" stroke-width="0.75"/>
    <path id="Fill_68" data-name="Fill 68" d="M1.089,6.091A1.089,1.089,0,0,1,0,5V1.088a1.089,1.089,0,0,1,2.178,0V5A1.089,1.089,0,0,1,1.089,6.091" transform="translate(110.328 51.371)" fill="#010202"/>
    <path id="Stroke_69" data-name="Stroke 69" d="M1.089,6.091A1.089,1.089,0,0,1,0,5V1.088a1.089,1.089,0,0,1,2.178,0V5A1.089,1.089,0,0,1,1.089,6.091Z" transform="translate(110.328 51.371)" fill="none" stroke="#505050" stroke-miterlimit="10" stroke-width="0.75"/>
    <path id="Fill_70" data-name="Fill 70" d="M1.137,25.814A1.093,1.093,0,0,1,.051,24.8a18.37,18.37,0,0,1,1.221-8.179A17.232,17.232,0,0,1,5.92,10.016a6.983,6.983,0,0,1,1.472-5.24A13.878,13.878,0,0,1,17.789.013C18.054,0,18.32,0,18.58,0c6.54,0,11.87,2.553,16.293,7.806a24.048,24.048,0,0,1,5.713,16.578,1.085,1.085,0,0,1-1.055,1.042q-.04,0-.081,0a1.091,1.091,0,0,1-1.039-1.136,21.88,21.88,0,0,0-5.2-15.08c-4.041-4.8-8.679-7.032-14.594-7.032-.248,0-.5,0-.756.012a11.724,11.724,0,0,0-8.784,3.97,4.592,4.592,0,0,0-.981,2.273,9.913,9.913,0,0,1,3.859-1.318,7.03,7.03,0,0,1,.767-.042A5.915,5.915,0,0,1,18.284,10.4a4.249,4.249,0,0,1-1.607,5.074A5.461,5.461,0,0,1,13.238,16.6a6.918,6.918,0,0,1-1.526-.174,7.55,7.55,0,0,1-5.1-4.07A15.594,15.594,0,0,0,2.223,24.647a1.089,1.089,0,0,1-1.006,1.164C1.19,25.814,1.163,25.814,1.137,25.814Zm11.6-16.567a5.011,5.011,0,0,0-.544.03,8.307,8.307,0,0,0-3.856,1.586,4.839,4.839,0,0,0,.216.513,5.377,5.377,0,0,0,3.641,2.929,4.667,4.667,0,0,0,1.032.118,3.379,3.379,0,0,0,2.1-.657,2.163,2.163,0,0,0,.949-2.54A3.8,3.8,0,0,0,12.736,9.247Z" transform="translate(91.798 0.374)" fill="#010202"/>
    <path id="Stroke_71" data-name="Stroke 71" d="M1.137,25.814A1.093,1.093,0,0,1,.051,24.8a18.37,18.37,0,0,1,1.221-8.179A17.232,17.232,0,0,1,5.92,10.016a6.983,6.983,0,0,1,1.472-5.24A13.878,13.878,0,0,1,17.789.013C18.054,0,18.32,0,18.58,0c6.54,0,11.87,2.553,16.293,7.806a24.048,24.048,0,0,1,5.713,16.578,1.085,1.085,0,0,1-1.055,1.042q-.04,0-.081,0a1.091,1.091,0,0,1-1.039-1.136,21.88,21.88,0,0,0-5.2-15.08c-4.041-4.8-8.679-7.032-14.594-7.032-.248,0-.5,0-.756.012a11.724,11.724,0,0,0-8.784,3.97,4.592,4.592,0,0,0-.981,2.273,9.913,9.913,0,0,1,3.859-1.318,7.03,7.03,0,0,1,.767-.042A5.915,5.915,0,0,1,18.284,10.4a4.249,4.249,0,0,1-1.607,5.074A5.461,5.461,0,0,1,13.238,16.6a6.918,6.918,0,0,1-1.526-.174,7.55,7.55,0,0,1-5.1-4.07A15.594,15.594,0,0,0,2.223,24.647a1.089,1.089,0,0,1-1.006,1.164C1.19,25.814,1.163,25.814,1.137,25.814Zm11.6-16.567a5.011,5.011,0,0,0-.544.03,8.307,8.307,0,0,0-3.856,1.586,4.839,4.839,0,0,0,.216.513,5.377,5.377,0,0,0,3.641,2.929,4.667,4.667,0,0,0,1.032.118,3.379,3.379,0,0,0,2.1-.657,2.163,2.163,0,0,0,.949-2.54A3.8,3.8,0,0,0,12.736,9.247Z" transform="translate(91.798 0.374)" fill="none" stroke="#505050" stroke-miterlimit="10" stroke-width="0.75"/>
    <path id="Fill_72" data-name="Fill 72" d="M8.453,16.914a8.5,8.5,0,0,1-8.1-6.049A8.457,8.457,0,0,1,8.458,0a8.5,8.5,0,0,1,8.1,6.048A8.459,8.459,0,0,1,8.453,16.914ZM8.458,2.177a6.28,6.28,0,1,0,6.016,4.491A6.293,6.293,0,0,0,8.458,2.177Z" transform="translate(93.512 67.285)" fill="#010202"/>
    <path id="Stroke_73" data-name="Stroke 73" d="M8.453,16.914a8.5,8.5,0,0,1-8.1-6.049A8.457,8.457,0,0,1,8.458,0a8.5,8.5,0,0,1,8.1,6.048A8.459,8.459,0,0,1,8.453,16.914ZM8.458,2.177a6.28,6.28,0,1,0,6.016,4.491A6.293,6.293,0,0,0,8.458,2.177Z" transform="translate(93.512 67.285)" fill="none" stroke="#505050" stroke-miterlimit="10" stroke-width="0.75"/>
    <path id="Fill_74" data-name="Fill 74" d="M8.455,16.914a8.5,8.5,0,0,1-8.1-6.049A8.455,8.455,0,0,1,6.049.352,8.455,8.455,0,1,1,8.455,16.914ZM8.462,2.177a6.279,6.279,0,1,0,6.016,4.491A6.293,6.293,0,0,0,8.462,2.177Z" transform="translate(112.985 67.285)" fill="#010202"/>
    <path id="Stroke_75" data-name="Stroke 75" d="M8.455,16.914a8.5,8.5,0,0,1-8.1-6.049A8.455,8.455,0,0,1,6.049.352,8.455,8.455,0,1,1,8.455,16.914ZM8.462,2.177a6.279,6.279,0,1,0,6.016,4.491A6.293,6.293,0,0,0,8.462,2.177Z" transform="translate(112.985 67.285)" fill="none" stroke="#505050" stroke-miterlimit="10" stroke-width="0.75"/>
    <path id="Fill_76" data-name="Fill 76" d="M1.088,9.214A1.088,1.088,0,0,1,.315,7.36C3.281,4.365,10.943,2.508,15.246,1.668c7.681-1.5,13.53-1.548,20.3-1.6C37.192.05,38.888.036,40.679,0a1.079,1.079,0,0,1,1.109,1.067,1.087,1.087,0,0,1-1.066,1.11c-1.8.036-3.5.05-5.155.063-6.665.055-12.42.1-19.9,1.564C8.86,5.133,3.7,7.035,1.861,8.891a1.081,1.081,0,0,1-.773.323" transform="translate(89.909 73.383)" fill="#010202"/>
    <path id="Stroke_77" data-name="Stroke 77" d="M1.088,9.214A1.088,1.088,0,0,1,.315,7.36C3.281,4.365,10.943,2.508,15.246,1.668c7.681-1.5,13.53-1.548,20.3-1.6C37.192.05,38.888.036,40.679,0a1.079,1.079,0,0,1,1.109,1.067,1.087,1.087,0,0,1-1.066,1.11c-1.8.036-3.5.05-5.155.063-6.665.055-12.42.1-19.9,1.564C8.86,5.133,3.7,7.035,1.861,8.891A1.081,1.081,0,0,1,1.088,9.214Z" transform="translate(89.909 73.383)" fill="none" stroke="#505050" stroke-miterlimit="10" stroke-width="0.75"/>
    <path id="Fill_78" data-name="Fill 78" d="M40.309,9.306a1.085,1.085,0,0,1-.778-.327c-1.828-1.868-6.976-3.8-13.769-5.172C16.494,1.937,10.428,2.082,1.248,2.3l-.134,0A1.1,1.1,0,0,1,0,1.243,1.089,1.089,0,0,1,1.062.128l.134,0C10.529-.1,16.688-.243,26.191,1.673c4.3.867,11.947,2.77,14.9,5.783a1.089,1.089,0,0,1-.778,1.85" transform="translate(91.669 73.575)" fill="#010202"/>
    <path id="Stroke_79" data-name="Stroke 79" d="M40.309,9.306a1.085,1.085,0,0,1-.778-.327c-1.828-1.868-6.976-3.8-13.769-5.172C16.494,1.937,10.428,2.082,1.248,2.3l-.134,0A1.1,1.1,0,0,1,0,1.243,1.089,1.089,0,0,1,1.062.128l.134,0C10.529-.1,16.688-.243,26.191,1.673c4.3.867,11.947,2.77,14.9,5.783a1.089,1.089,0,0,1-.778,1.85Z" transform="translate(91.669 73.575)" fill="none" stroke="#505050" stroke-miterlimit="10" stroke-width="0.75"/>
  </g>
</svg>
