<svg xmlns="http://www.w3.org/2000/svg" xmlns:xlink="http://www.w3.org/1999/xlink" width="113.967" height="124.781" viewBox="0 0 113.967 124.781">
  <defs>
    <clipPath id="clip-path">
      <path id="Clip_6" data-name="Clip 6" d="M0,0H113.967V124.781H0Z" transform="translate(0 0.219)" fill="none"/>
    </clipPath>
  </defs>
  <g id="icon3" transform="translate(0 -1)">
    <path id="Fill_1" data-name="Fill 1" d="M62.836,121.1s-39.576,5.375-56.678-7.818S13,92.273,13,92.273s18.33-13.119,21-15.087c0,0-11.141,10.094-22.951-13.252,0,0,11.238-10.26,12.216-20.521S31.077,12.143,33.52,9.7,52.1,0,53.282,0,77.624,2.1,80.49,26.665,89.043,60.9,95.328,61s-1.039,8.989-7.085,14.169-14.9,2.2-14.9,2.2-4.474-5.646-4.474,6.583V120Z" transform="translate(0.984 1)" fill="#dcb67b"/>
    <path id="Fill_3" data-name="Fill 3" d="M13.136,3.166S6.045-3.22,1.4,2.643s3,19.239,11.733,19.442c4.391.1,13.675-13.335,13.675-13.335S21.924-6.4,13.136,3.166" transform="translate(76.342 90.63)" fill="#f05d4f"/>
    <g id="Group_7" data-name="Group 7" transform="translate(0 0.781)">
      <path id="Clip_6-2" data-name="Clip 6" d="M0,0H113.967V124.781H0Z" transform="translate(0 0.219)" fill="none"/>
      <g id="Group_7-2" data-name="Group 7" clip-path="url(#clip-path)">
        <path id="Fill_5" data-name="Fill 5" d="M104.891,124.782H74.815a8.979,8.979,0,0,1-3.908-.9A9.183,9.183,0,0,1,66.821,120a9.066,9.066,0,0,1-1.083-4.293V83.954a8.988,8.988,0,0,1,1.784-5.4,9.174,9.174,0,0,1,4.526-3.245l.052-.017.047-.016a9.05,9.05,0,0,1,2.668-.4H86.967a15.521,15.521,0,0,0,5.427-4.112,14.51,14.51,0,0,0,2.378-4.112,16.655,16.655,0,0,0,.874-3.315c-5.15-2.333-8.961-7.859-11.327-16.425A90.972,90.972,0,0,1,81.653,28.9c-.07-1.04-.12-1.791-.178-2.238C79.729,13.387,69.025,4.113,55.445,4.113c-.2,0-.391,0-.59.005s-.393-.005-.589-.005c-13.581,0-24.284,9.274-26.03,22.552-.058.447-.109,1.2-.178,2.238a90.978,90.978,0,0,1-2.666,18.012c-2.366,8.565-6.177,14.091-11.327,16.425.813,5.171,4.609,13.846,20.914,13.846l2.666-1.966a.078.078,0,0,0,.016.013l.009.936C37.261,85.3,29.923,87.6,22.155,90.033c-8.871,2.779-18.043,5.653-18.043,18.89,0,3.507,5.488,6.452,15.872,8.517,9.214,1.833,21.612,2.842,34.91,2.842,1,0,2.065-.008,3.248-.023a17.152,17.152,0,0,0,1.708,4.088c-1.672.032-3.339.048-4.956.048-13.556,0-26.24-1.037-35.713-2.921C10.947,119.837,0,116.755,0,108.923,0,92.665,12.095,88.877,20.926,86.11c5.6-1.754,8.778-3,10.645-4.936-7.433-.559-13.128-3-16.926-7.245A19.449,19.449,0,0,1,10,63.978l-.487-3.093,2.853-1.292c9.814-4.445,11.147-24.4,11.586-30.962l0-.057c.074-1.09.127-1.877.2-2.445C26.182,10.745,38.561,0,54.264,0c.21,0,.408,0,.591.006s.38-.006.59-.006c15.7,0,28.084,10.746,30.106,26.131.073.562.125,1.316.2,2.5.439,6.559,1.776,26.519,11.587,30.962l2.853,1.292-.488,3.093a20.56,20.56,0,0,1-.61,2.676,19.665,19.665,0,0,1-1.76,4.112,18.486,18.486,0,0,1-3.19,4.112h10.744a9.086,9.086,0,0,1,9.076,9.076V115.7A9.087,9.087,0,0,1,104.891,124.782ZM74.815,78.99a5.028,5.028,0,0,0-4.964,4.964V115.7a5.005,5.005,0,0,0,4.964,4.964h30.076a4.97,4.97,0,0,0,4.963-4.964V83.954a4.969,4.969,0,0,0-4.963-4.964H74.815Z" transform="translate(0 0.219)" fill="#333"/>
      </g>
    </g>
    <path id="Stroke_8" data-name="Stroke 8" d="M12.683,21.805S0,13.96,0,7.02A7.013,7.013,0,0,1,12.683,2.886,7.014,7.014,0,0,1,25.368,7.02C25.368,13.578,12.683,21.805,12.683,21.805Z" transform="translate(76.795 90.91)" fill="none" stroke="#0a1720" stroke-linejoin="round" stroke-miterlimit="10" stroke-width="3.398"/>
  </g>
</svg>
