<svg xmlns="http://www.w3.org/2000/svg" width="59.942" height="41.17" viewBox="0 0 59.942 41.17">
  <g id="quotes" transform="translate(0 -0.029)">
    <path id="Shape" d="M46.842,41.17a13.1,13.1,0,0,1-13.1-13.1L33.684,26.2A26.177,26.177,0,0,1,59.883,0V7.485a18.593,18.593,0,0,0-13.233,5.481,19.007,19.007,0,0,0-1.861,2.165,13.243,13.243,0,0,1,2.053-.161,13.1,13.1,0,0,1,0,26.2Zm-33.684,0a13.1,13.1,0,0,1-13.1-13.1L0,26.2A26.177,26.177,0,0,1,26.2,0V7.485a18.593,18.593,0,0,0-13.233,5.481,19.007,19.007,0,0,0-1.861,2.165,13.243,13.243,0,0,1,2.053-.161,13.1,13.1,0,0,1,0,26.2Z" transform="translate(0 0.029)" fill="#666"/>
  </g>
</svg>
