<svg xmlns="http://www.w3.org/2000/svg" width="58.162" height="56.84" viewBox="0 0 58.162 56.84">
  <g id="bra_icon" data-name="bra icon" transform="translate(1.048 1)">
    <path id="Stroke_1" data-name="Stroke 1" d="M3.867,0C.743,2.937-2.254,9.337,2.418,16.586c0,0,10.185,5.2,18.418-.587C19.344,10.044,13.364,1.445,3.867,0Z" transform="translate(7.198 21.76)" fill="none" stroke="#011520" stroke-linejoin="round" stroke-miterlimit="10" stroke-width="2"/>
    <path id="Stroke_3" data-name="Stroke 3" d="M.5,11.914V0" transform="translate(10.575 9.846)" fill="none" stroke="#011520" stroke-linejoin="round" stroke-miterlimit="10" stroke-width="2"/>
    <path id="Stroke_5" data-name="Stroke 5" d="M16.911,0c3.124,2.937,6.121,9.337,1.449,16.586,0,0-10.127,5.2-18.36-.587C1.493,10.044,7.414,1.445,16.911,0Z" transform="translate(28.034 21.76)" fill="none" stroke="#011520" stroke-linejoin="round" stroke-miterlimit="10" stroke-width="2"/>
    <path id="Stroke_7" data-name="Stroke 7" d="M.5,12.106V0" transform="translate(44.435 9.654)" fill="none" stroke="#011520" stroke-linejoin="round" stroke-miterlimit="10" stroke-width="2"/>
    <path id="Stroke_9" data-name="Stroke 9" d="M48.787,31.476c6.336-6.247,9.276-13.716,5.8-16.027C49.506,12.066,40.1,7.111,38.258,5.521l-.031-2.589C38.227,1.312,33.648,0,28,0,22.472,0,17.981,1.256,17.788,2.828L17.8,5.571C15.863,7.238,6.546,12.415,1.525,15.449c-3.54,2.138-.62,9.518,5.681,15.776" transform="translate(0 0)" fill="none" stroke="#011520" stroke-linejoin="round" stroke-miterlimit="10" stroke-width="2"/>
    <path id="Stroke_11" data-name="Stroke 11" d="M.8.164C.728,4.331.464,8.524,0,12.829a.75.75,0,0,0,.511.794A59.223,59.223,0,0,0,19.3,16.7a59.214,59.214,0,0,0,18.78-3.077.751.751,0,0,0,.511-.794c-.466-4.361-.73-8.608-.8-12.829" transform="translate(8.738 38.139)" fill="none" stroke="#011520" stroke-linejoin="round" stroke-miterlimit="10" stroke-width="2"/>
  </g>
</svg>
