<svg xmlns="http://www.w3.org/2000/svg" width="56.429" height="60.887" viewBox="0 0 56.429 60.887">
  <g id="shirt_icon" data-name="shirt icon" transform="translate(1.003 1)">
    <path id="Stroke_1" data-name="Stroke 1" d="M.5,0V43.24" transform="translate(27.889 15.647)" fill="none" stroke="#011520" stroke-linejoin="round" stroke-miterlimit="10" stroke-width="2"/>
    <path id="Stroke_3" data-name="Stroke 3" d="M9.5,15.647c3.112-2.683,9.165-9,9.842-13.748C18.839,1.046,14.714,0,9.7,0,4.345,0-.13,1.2,0,2.069,1.146,9.495,9.5,15.647,9.5,15.647Z" transform="translate(18.9 0)" fill="none" stroke="#011520" stroke-linejoin="round" stroke-miterlimit="10" stroke-width="2"/>
    <path id="Stroke_5" data-name="Stroke 5" d="M.5.221V.779" transform="translate(31.622 16.152)" fill="none" stroke="#011520" stroke-linecap="round" stroke-miterlimit="10" stroke-width="2"/>
    <path id="Stroke_7" data-name="Stroke 7" d="M6.12,0C7.22,1.939,8.047,6.814,5.4,12.965L0,10.142" transform="translate(32.123 1.899)" fill="none" stroke="#011520" stroke-linejoin="round" stroke-miterlimit="10" stroke-width="2"/>
    <path id="Stroke_9" data-name="Stroke 9" d="M1.046,0c-1.1,1.939-1.927,6.814.717,12.965l5-2.611" transform="translate(17.889 1.899)" fill="none" stroke="#011520" stroke-linejoin="round" stroke-miterlimit="10" stroke-width="2"/>
    <path id="Stroke_11" data-name="Stroke 11" d="M5.785,33.291A22.58,22.58,0,0,1,5.426,19.71a49.137,49.137,0,0,1,2.686,9.682C4.713,35.274.195,42.043.195,42.043A1.13,1.13,0,0,0,.48,43.6l4.014,2.158a1.237,1.237,0,0,0,1.628-.177s7.42-8.212,10.425-16.292c.693-6.2-4.721-20.258-6.506-24.059C9.248,3.54,4.17,1.17,1.11,0" transform="translate(37.817 3.73)" fill="none" stroke="#011520" stroke-linejoin="round" stroke-miterlimit="10" stroke-width="2"/>
    <path id="Stroke_13" data-name="Stroke 13" d="M18.2,0c-3.627,1.557-9,4.037-9.7,5.67C1.787,21.344.006,46.239.006,46.239c-.119,1.51,1.6,2.026,2.133,2.143.9.2,3.238.436,3.238.436,1.4.068,1.521-1.266,1.676-1.847,1.408-5.281,4.188-16.305,6.183-23.21.183-.635.848-2.5.848-2.5A15.82,15.82,0,0,1,15.741,26.4c1.19,8.332-3.393,16.99-4.105,24.24.116.931.192,1.6,1.854,2.1,7.679,2.849,22.125,3.048,30.545,0a1.865,1.865,0,0,0,1.5-2.1c-.028-.907-1.155-4.567-1.379-5.517" transform="translate(0 3.945)" fill="none" stroke="#011520" stroke-linejoin="round" stroke-miterlimit="10" stroke-width="2"/>
  </g>
</svg>
