<svg xmlns="http://www.w3.org/2000/svg" width="55.97" height="57.911" viewBox="0 0 55.97 57.911">
  <g id="tshirt_Icon" data-name="tshirt Icon" transform="translate(1 1.405)">
    <path id="Stroke_1" data-name="Stroke 1" d="M19.222,0c-1.483,2.052-5.286,3.39-9.677,3.39C5.28,3.39,1.564,1.961,0,0" transform="translate(17.374)" fill="none" stroke="#011520" stroke-linecap="round" stroke-linejoin="round" stroke-miterlimit="10" stroke-width="2"/>
    <path id="Stroke_3" data-name="Stroke 3" d="M0,0A38.723,38.723,0,0,0,1.4,7.756C4.553,20.595-.57,21.061.539,37.888a1.213,1.213,0,0,0,1,1.31,88.459,88.459,0,0,0,30.612,0,1.213,1.213,0,0,0,1-1.31c1.192-16.3-4.593-17.52-1.28-30.1A67.692,67.692,0,0,0,33.854,0" transform="translate(10.232 14.83)" fill="none" stroke="#011520" stroke-linecap="round" stroke-linejoin="round" stroke-miterlimit="10" stroke-width="2"/>
    <path id="Stroke_5" data-name="Stroke 5" d="M42.4,22.586c5.04-1.157,11.574-7.351,11.574-7.351-2.747-5.308-6.882-11-11.566-13.47A29.941,29.941,0,0,0,36.6,0V1.235c0,3.387-4.3,6.593-9.611,6.593s-9.611-3.206-9.611-6.593V0a29.941,29.941,0,0,0-5.808,1.765C6.882,4.236,2.747,9.927,0,15.235c0,0,6.351,6.1,11.391,7.255" fill="none" stroke="#011520" stroke-linecap="round" stroke-linejoin="round" stroke-miterlimit="10" stroke-width="2"/>
  </g>
</svg>
