<svg xmlns="http://www.w3.org/2000/svg" width="67.001" height="76" viewBox="0 0 67.001 76">
  <path id="Fill_1" data-name="Fill 1" d="M65.8,76a1.2,1.2,0,0,1-1.144-.851l-2.312-7.787L48.832,61.106a16.126,16.126,0,0,1-30.662,0L4.654,67.361,2.339,75.148a1.193,1.193,0,0,1-1.483.8,1.184,1.184,0,0,1-.712-.573,1.173,1.173,0,0,1-.1-.9l2.465-8.3a1.184,1.184,0,0,1,.643-.74L9.3,62.593v-38.6a24.15,24.15,0,0,1,48.3,0V62.548l6.246,2.89a1.184,1.184,0,0,1,.643.74l2.462,8.3a1.185,1.185,0,0,1-.807,1.473A1.2,1.2,0,0,1,65.8,76ZM24.457,52.341l-1.441,6.022a1.18,1.18,0,0,1-.656.8l-2.016.932a13.764,13.764,0,0,0,26.315,0l-2.021-.932a1.185,1.185,0,0,1-.657-.8l-1.495-6.276a14.516,14.516,0,0,1-9.169,3.569A14.4,14.4,0,0,1,24.457,52.341ZM33.451,2.372A21.716,21.716,0,0,0,11.69,23.993V61.487l9.136-4.23,1.612-6.745a26.928,26.928,0,0,1-7.072-16.762.712.712,0,0,0-.079.023.443.443,0,0,1-.137.029,1.188,1.188,0,0,1-.66-.2,1.184,1.184,0,0,1-.337-1.644,15.874,15.874,0,0,1,8.357-5.575L24,16.259a1.19,1.19,0,0,1,1.067-1.008c.04,0,.08-.006.12-.006a1.177,1.177,0,0,1,1.119.789c1.191,3.32,2.8,7.788,3.428,9.456l7.435.247,1.906-6.946a1.182,1.182,0,0,1,1.1-.873.8.8,0,0,1,.082,0,1.243,1.243,0,0,1,1.091.773L44.512,27.1c1.434.513,6.218,2.3,7.556,3.715A1.165,1.165,0,0,1,51.3,32.8a28.632,28.632,0,0,1-2.012,9.688,25.121,25.121,0,0,1-4.8,7.736.053.053,0,0,0,0,.009.033.033,0,0,1,0,.013l1.674,7.017,9.041,4.185V23.993A21.716,21.716,0,0,0,33.451,2.372ZM25.672,21.315h0l-.906,6.172a1.193,1.193,0,0,1-.877.975,15.233,15.233,0,0,0-6.243,3.231.48.48,0,0,0,.016.07.354.354,0,0,1,.017.1c0,11.212,7.454,21.424,15.639,21.424S48.955,43.072,48.955,31.86A.84.84,0,0,1,49,31.631l.013-.046A48.231,48.231,0,0,0,43.2,29.156a1.2,1.2,0,0,1-.725-.7l-2.062-5.486-1.182,4.3a1.187,1.187,0,0,1-1.114.876l-.078,0-9.168-.306a1.187,1.187,0,0,1-1.03-.658C27.722,26.955,27.034,25.093,25.672,21.315Z" transform="translate(0.001)" fill="#bdbdbd"/>
</svg>
