<svg xmlns="http://www.w3.org/2000/svg" width="66.001" height="85" viewBox="0 0 66.001 85">
  <path id="Fill_7" data-name="Fill 7" d="M24.972,85a1.229,1.229,0,0,1-.314-.041,1.189,1.189,0,0,1-.835-1.453L28.41,66.658l-7.29-7.817L4.262,66.66,2.331,73.17a1.184,1.184,0,0,1-1.142.848,1.148,1.148,0,0,1-.336-.048,1.182,1.182,0,0,1-.8-1.47l2.084-7.024a1.184,1.184,0,0,1,.638-.736l17.607-8.165,1.6-6.716a24.287,24.287,0,0,1-4.713-7.17,3.716,3.716,0,0,1-1.139.379,3.469,3.469,0,0,1-.543.04,4.9,4.9,0,0,1-3.674-1.947,10,10,0,0,1-2.084-4.944A9.221,9.221,0,0,1,10.963,29.9,22.749,22.749,0,0,1,9.2,20.419a17.22,17.22,0,0,1,2.5-8.443A15.161,15.161,0,0,1,15.86,7.5a11.872,11.872,0,0,1,5.212-2.08C23.246,1.824,27.144,0,32.657,0H32.8A25.37,25.37,0,0,1,43.654,2.327a21.7,21.7,0,0,1,8.17,6.564C56.26,14.722,57.417,22.5,55.083,30.8a.26.26,0,0,0,.014.03c0,.009.009.017.013.027a9.962,9.962,0,0,1,.593,5.357,10.014,10.014,0,0,1-2.083,4.944,4.894,4.894,0,0,1-3.668,1.95,3.8,3.8,0,0,1-.54-.041,3.968,3.968,0,0,1-1.057-.357,24.547,24.547,0,0,1-4.416,6.829.053.053,0,0,0,.008.016.057.057,0,0,1,.009.019l1.665,7,17.6,8.165a1.182,1.182,0,0,1,.64.736L65.951,72.5a1.185,1.185,0,0,1-1.142,1.517,1.192,1.192,0,0,1-1.139-.848l-1.935-6.51L44.878,58.841l-7.285,7.817,4.587,16.848a1.189,1.189,0,0,1-.838,1.453,1.287,1.287,0,0,1-.311.04,1.187,1.187,0,0,1-1.147-.873L35.36,67.517H30.64L26.119,84.126A1.194,1.194,0,0,1,24.972,85Zm-.982-33.324h0L22.7,57.064l7.543,8.087h5.505l7.54-8.087-1.342-5.636a14.429,14.429,0,0,1-9.134,3.559,14.346,14.346,0,0,1-8.827-3.311ZM16.7,35.912a1.192,1.192,0,0,1,1.156.931C19.867,45.985,26.16,52.62,32.817,52.62S45.749,46,47.766,36.878a1.184,1.184,0,0,1,1.164-.928,1.257,1.257,0,0,1,.254.026,1.189,1.189,0,0,1,.906,1.411,30.462,30.462,0,0,1-.889,3.129,1.46,1.46,0,0,0,.556.211,1.259,1.259,0,0,0,.194.015,2.8,2.8,0,0,0,2.023-1.327,7.908,7.908,0,0,0,1.373-3.541,7.705,7.705,0,0,0-.418-4.074A2.4,2.4,0,0,0,51.3,30.21a1.364,1.364,0,0,0-.2-.014,1.832,1.832,0,0,0-.925.282.174.174,0,0,1-.05.018.2.2,0,0,0-.034.011l.24,1.435a1.17,1.17,0,0,1-.2.88,1.183,1.183,0,0,1-.775.483,1.129,1.129,0,0,1-.2.016,1.182,1.182,0,0,1-1.17-.987l-.65-3.839L40.395,23.1l-16.217-2.1a11.963,11.963,0,0,0-5.784,6.608,15.407,15.407,0,0,0-.992,4.314,1.186,1.186,0,0,1-1.19,1.139h-.043a1.19,1.19,0,0,1-1.147-1.222,13.049,13.049,0,0,1,.157-1.441,1.737,1.737,0,0,0-.766-.208,1.125,1.125,0,0,0-.175.014,1.889,1.889,0,0,0-1.194.819,6.822,6.822,0,0,0-.864,4.846c.441,3.007,2.1,4.868,3.393,4.868a1.35,1.35,0,0,0,.2-.015,1.514,1.514,0,0,0,.633-.275,28.747,28.747,0,0,1-.88-3.106A1.2,1.2,0,0,1,16.7,35.912Zm34.52-8.074a2.936,2.936,0,0,1,.428.031,3.78,3.78,0,0,1,1.536.625c1.544-6.93.389-13.385-3.253-18.175A20.916,20.916,0,0,0,33,2.37h-.355c-1.8,0-7.289,0-9.785,4.722a1.2,1.2,0,0,1-.976.629c-3.071.2-6.2,2.308-8.154,5.492-2.557,4.152-2.869,9.467-.878,14.966a3.718,3.718,0,0,1,1.038-.308,2.779,2.779,0,0,1,.437-.034A4.252,4.252,0,0,1,15.7,28.1a14.518,14.518,0,0,1,6.9-8.932l-.911-4.085a1.19,1.19,0,0,1,.9-1.414,1.3,1.3,0,0,1,.261-.027,1.18,1.18,0,0,1,1.159.927l.926,4.154L41.023,20.8a1.177,1.177,0,0,1,.579.239l7.561,5.871a1.171,1.171,0,0,1,.443.736l.085.507A4.326,4.326,0,0,1,51.217,27.839Z" transform="translate(0)" fill="#bdbdbd"/>
</svg>
