<svg xmlns="http://www.w3.org/2000/svg" width="65" height="70" viewBox="0 0 65 70">
  <path id="Fill_3" data-name="Fill 3" d="M1.171,70a1.229,1.229,0,0,1-.331-.047A1.172,1.172,0,0,1,.048,68.5L2.1,61.576a1.165,1.165,0,0,1,.628-.728L20.069,52.8l1.568-6.589a23.932,23.932,0,0,1-4.631-7.084,3.684,3.684,0,0,1-1.137.376,4.231,4.231,0,0,1-.541.037,4.717,4.717,0,0,1-3.581-1.9,9.878,9.878,0,0,1-2.071-4.9,9.124,9.124,0,0,1,1.112-6.187,8.306,8.306,0,0,1-2.772-6.234,8,8,0,0,1,4.776-7.532c-.022-.248-.033-.489-.033-.714C12.76,7.622,16.067,4,20.133,4c.2,0,.409.009.613.027A7.372,7.372,0,0,1,27.181,0,7.047,7.047,0,0,1,32.1,2.045,7.048,7.048,0,0,1,37.018,0a7.43,7.43,0,0,1,6.791,4.824,6.672,6.672,0,0,1,1.537-.179c4.105,0,7.445,3.623,7.445,8.076a7.885,7.885,0,0,1-.158,1.547,7.875,7.875,0,0,1,2.587,2.924,8.6,8.6,0,0,1,.954,3.943,8.348,8.348,0,0,1-2.234,5.748,9.244,9.244,0,0,1,.916,5.863,9.878,9.878,0,0,1-2.071,4.9,4.718,4.718,0,0,1-3.581,1.9,4.262,4.262,0,0,1-.544-.037,3.68,3.68,0,0,1-1.047-.357,24.113,24.113,0,0,1-4.331,6.738.023.023,0,0,0,.005.013l1.642,6.9,17.34,8.048a1.175,1.175,0,0,1,.628.728L64.952,68.5a1.172,1.172,0,0,1-.792,1.452,1.252,1.252,0,0,1-.333.047,1.176,1.176,0,0,1-1.122-.835l-1.9-6.419L44.2,55.037l-7.178,8.139H27.977L20.8,55.037l-16.6,7.7L2.3,69.164A1.176,1.176,0,0,1,1.171,70ZM23.617,48.006l-1.256,5.275,7.43,7.973h5.421l7.425-7.973-1.314-5.527a14.216,14.216,0,0,1-9.005,3.5A14.132,14.132,0,0,1,23.617,48.006ZM16.658,33.33h0a1.165,1.165,0,0,1,1.126.882c2.205,8.658,8.182,14.7,14.533,14.7,6.205,0,12.138-5.88,14.428-14.3a1.171,1.171,0,0,1,2.261.611c-.165.6-.347,1.194-.541,1.762a1.374,1.374,0,0,0,.736.214,2.621,2.621,0,0,0,1.79-1.064,7.642,7.642,0,0,0,1.549-3.731,7.494,7.494,0,0,0-.466-4.1,6.945,6.945,0,0,1-2.446.8,6.243,6.243,0,0,1-.012,1.727,1.158,1.158,0,0,1-1.156.989,1.431,1.431,0,0,1-.176-.012,1.171,1.171,0,0,1-.984-1.327,2.933,2.933,0,0,0-.094-1.431.261.261,0,0,1-.068-.039.336.336,0,0,0-.049-.031,7.272,7.272,0,0,1-3.03-1.6,8.033,8.033,0,0,1-2.08-2.917,8.807,8.807,0,0,1-4.145-1.421,7.482,7.482,0,0,1-2.665-3.107,8.607,8.607,0,0,1-6.369-.6,8,8,0,0,1-6.985,5.149,7.479,7.479,0,0,1-4.343,3.6,4.223,4.223,0,0,0-.349,2.444,1.172,1.172,0,0,1-1.04,1.283,1.19,1.19,0,0,1-.127.007,1.166,1.166,0,0,1-1.162-1.046,8.635,8.635,0,0,1,.11-2.448,6.909,6.909,0,0,1-2.163-.514,6.762,6.762,0,0,0-.747,4.589,7.643,7.643,0,0,0,1.546,3.731,2.572,2.572,0,0,0,1.8,1.063,1.256,1.256,0,0,0,.19-.014,1.426,1.426,0,0,0,.621-.264c-.273-.805-.477-1.486-.643-2.14a1.183,1.183,0,0,1,1.145-1.457ZM42.724,22.188A1.274,1.274,0,0,1,43.935,23a5.182,5.182,0,0,0,4.8,3.877c2.812,0,5.1-2.575,5.1-5.739a5.8,5.8,0,0,0-3.063-5.25,1.163,1.163,0,0,1-.607-1.372,6.343,6.343,0,0,0,.285-1.793c0-3.106-2.345-5.73-5.122-5.73a4.515,4.515,0,0,0-1.8.381,1.132,1.132,0,0,1-.468.1,1.185,1.185,0,0,1-1.14-.9,5.243,5.243,0,0,0-4.9-4.242,4.889,4.889,0,0,0-3.963,2.175,1.217,1.217,0,0,1-1.91,0,4.9,4.9,0,0,0-3.965-2.175,5.119,5.119,0,0,0-4.651,3.4,1.174,1.174,0,0,1-1.338.709,5,5,0,0,0-1.034-.11c-2.834,0-5.054,2.522-5.054,5.742a6.2,6.2,0,0,0,.14,1.281,1.17,1.17,0,0,1-.869,1.366,5.662,5.662,0,0,0-4.014,5.6c0,3.165,2.288,5.739,5.1,5.739A5.05,5.05,0,0,0,20,22.881a1.137,1.137,0,0,1,1.014-.7.993.993,0,0,1,.12.007,5.539,5.539,0,0,0,5.7-4.847,1.17,1.17,0,0,1,.712-1,1.2,1.2,0,0,1,.457-.09,1.176,1.176,0,0,1,.76.276,6.108,6.108,0,0,0,3.944,1.428,6.416,6.416,0,0,0,2.68-.59,1.167,1.167,0,0,1,.482-.1,1.223,1.223,0,0,1,.514.114,1.176,1.176,0,0,1,.63.77,5.714,5.714,0,0,0,5.648,4.04h.058Z" fill="#bdbdbd"/>
</svg>
