<svg xmlns="http://www.w3.org/2000/svg" width="28" height="51" viewBox="0 0 28 51">
  <g id="Inseams_icon" data-name="Inseams icon" transform="translate(1 0.758)">
    <path id="Stroke_1" data-name="Stroke 1" d="M1.595,49C1.15,49,.749,48.506.7,47.9c-.249-15.2-.249-22.983-.7-34.3.179-5,.854-7.5,1.239-12.493.046-.606.445-1.1.89-1.1A78.931,78.931,0,0,0,23.871,0c.445,0,.845.494.892,1.1C25.145,6.089,25.821,8.589,26,13.593c-.386,11.873-.588,22.814-.7,34.3-.046.608-.447,1.1-.891,1.1H17.562L13,14.416,8.437,49Z" transform="translate(0 0.242)" fill="none" stroke="#011520" stroke-linejoin="round" stroke-miterlimit="10" stroke-width="2"/>
    <path id="Stroke_3" data-name="Stroke 3" d="M0,0V3.084H3V10" transform="translate(9 4.242)" fill="none" stroke="#011520" stroke-linejoin="round" stroke-miterlimit="10" stroke-width="2"/>
    <path id="Stroke_5" data-name="Stroke 5" d="M0,.1A86.426,86.426,0,0,0,24,.079" transform="translate(1 3.242)" fill="none" stroke="#011520" stroke-linejoin="round" stroke-miterlimit="10" stroke-width="2"/>
  </g>
</svg>
