<svg xmlns="http://www.w3.org/2000/svg" width="80" height="48.001" viewBox="0 0 80 48.001">
  <g id="Group_13" data-name="Group 13" transform="translate(0.5 0.501)">
    <path id="Stroke_1" data-name="Stroke 1" d="M26,0V6H0V1.023" transform="translate(53 41)" fill="none" stroke="#414042" stroke-linecap="round" stroke-linejoin="round" stroke-miterlimit="10" stroke-width="1"/>
    <path id="Stroke_3" data-name="Stroke 3" d="M52,13.371c-8.28,1.107-15.6,2.69-21.124,3.792A36.885,36.885,0,0,1,8.967,15.286L0,11.421V5.744A5.8,5.8,0,0,1,4.9,0" transform="translate(0 28)" fill="none" stroke="#414042" stroke-linecap="round" stroke-linejoin="round" stroke-miterlimit="10" stroke-width="1"/>
    <path id="Stroke_5" data-name="Stroke 5" d="M0,26.569A42.13,42.13,0,0,0,33.139.006l0-.006,6.6,2.857C46.175,5.6,52.231,6.82,58.4,5.714L65,4.531V40a110.063,110.063,0,0,0-13.033-.183" transform="translate(14 1)" fill="none" stroke="#414042" stroke-linecap="round" stroke-linejoin="round" stroke-miterlimit="10" stroke-width="1"/>
    <path id="Stroke_7" data-name="Stroke 7" d="M0,0,8.667,13S17.333,2.288,26,1.444" transform="translate(29 22)" fill="none" stroke="#414042" stroke-linecap="round" stroke-linejoin="round" stroke-miterlimit="10" stroke-width="1"/>
    <path id="Stroke_9" data-name="Stroke 9" d="M1.5,7V0" transform="translate(39 11)" fill="none" stroke="#414042" stroke-linecap="round" stroke-linejoin="round" stroke-miterlimit="10" stroke-width="1"/>
    <path id="Stroke_11" data-name="Stroke 11" d="M1.485,9l.03-9" transform="translate(45)" fill="none" stroke="#414042" stroke-linecap="round" stroke-linejoin="round" stroke-miterlimit="10" stroke-width="1"/>
  </g>
</svg>
