<svg xmlns="http://www.w3.org/2000/svg" xmlns:xlink="http://www.w3.org/1999/xlink" width="58.521" height="54.212" viewBox="0 0 58.521 54.212">
  <defs>
    <clipPath id="clip-path">
      <path id="Clip_2" data-name="Clip 2" d="M0,0H42.014V10.478H0Z" transform="translate(0.252 0.788)" fill="none"/>
    </clipPath>
    <clipPath id="clip-path-2">
      <path id="Clip_11" data-name="Clip 11" d="M0,0H58.521V47.406H0Z" transform="translate(0 0.594)" fill="none"/>
    </clipPath>
  </defs>
  <g id="Group_15" data-name="Group 15" transform="translate(0 -0.788)">
    <g id="Group_3" data-name="Group 3" transform="translate(8)">
      <path id="Clip_2-2" data-name="Clip 2" d="M0,0H42.014V10.478H0Z" transform="translate(0.252 0.788)" fill="none"/>
      <g id="Group_3-2" data-name="Group 3" clip-path="url(#clip-path)">
        <path id="Fill_1" data-name="Fill 1" d="M21.007,10.479A118.839,118.839,0,0,1,.573,8.915.724.724,0,0,1,0,8.2V3.5a.738.738,0,0,1,.27-.575C.419,2.806,4.122,0,21.007,0c17.063,0,20.6,2.816,20.747,2.936a.731.731,0,0,1,.261.565V8.2a.723.723,0,0,1-.566.714A112.582,112.582,0,0,1,21.007,10.479Zm0-9.023C7.213,1.456,2.515,3.34,1.4,3.917V7.585a123.168,123.168,0,0,0,19.6,1.438,118.312,118.312,0,0,0,19.6-1.435V3.912C39.521,3.337,34.887,1.456,21.007,1.456Z" transform="translate(0.252 0.787)" fill="#5d5d5d"/>
      </g>
    </g>
    <path id="Fill_4" data-name="Fill 4" d="M21,3A119.122,119.122,0,0,1,.573,1.44.725.725,0,0,1,.012.592.7.7,0,0,1,.832.014,117.847,117.847,0,0,0,21,1.549,111.875,111.875,0,0,0,41.161.014a.7.7,0,0,1,.826.571.725.725,0,0,1-.552.853A113.433,113.433,0,0,1,21,3" transform="translate(8 4)" fill="#5d5d5d"/>
    <path id="Fill_6" data-name="Fill 6" d="M15.318,17a.669.669,0,0,1-.492-.215L.19,1.179A.707.707,0,0,1,.21.193a.673.673,0,0,1,.965.021L15.81,15.821a.707.707,0,0,1-.021.985.67.67,0,0,1-.472.194" transform="translate(37 9)" fill="#5d5d5d"/>
    <path id="Fill_8" data-name="Fill 8" d="M.682,17a.67.67,0,0,1-.472-.194.707.707,0,0,1-.021-.985L14.825.214A.674.674,0,0,1,15.79.193a.707.707,0,0,1,.02.985L1.175,16.785A.668.668,0,0,1,.682,17" transform="translate(5 9)" fill="#5d5d5d"/>
    <g id="Group_12" data-name="Group 12" transform="translate(0 7)">
      <path id="Clip_11-2" data-name="Clip 11" d="M0,0H58.521V47.406H0Z" transform="translate(0 0.594)" fill="none"/>
      <g id="Group_12-2" data-name="Group 12" clip-path="url(#clip-path-2)">
        <path id="Fill_10" data-name="Fill 10" d="M21.821,47.406a.713.713,0,0,1-.078,0C11.5,46.387,3.63,43.41.162,39.236a.712.712,0,0,1-.144-.611L8.851.542A.695.695,0,0,1,9.644.01,121.935,121.935,0,0,0,29.261,1.43,117.278,117.278,0,0,0,48.873.014a.693.693,0,0,1,.8.532L58.5,38.624a.706.706,0,0,1-.144.611c-3.467,4.175-11.333,7.151-21.58,8.167l-.068,0a.7.7,0,0,1-.671-.516L30.532,26.708l-2.544,0L22.481,46.889A.684.684,0,0,1,21.821,47.406ZM10.059,1.5l-8.6,37.093a18.909,18.909,0,0,0,7.634,4.678,51.187,51.187,0,0,0,12.206,2.67l5.493-20.125a.7.7,0,0,1,.67-.517l3.6,0a.7.7,0,0,1,.671.516l5.491,20.123a51.2,51.2,0,0,0,12.208-2.67,18.907,18.907,0,0,0,7.635-4.678l-8.6-37.086a123.557,123.557,0,0,1-19.2,1.327A127.4,127.4,0,0,1,10.058,1.5Z" transform="translate(0 0.594)" fill="#5d5d5d"/>
      </g>
    </g>
    <path id="Fill_13" data-name="Fill 13" d="M7.308,19H.692A.7.7,0,0,1,0,18.3V.7A.7.7,0,0,1,.692,0a.7.7,0,0,1,.692.7V17.595H7.308a.7.7,0,0,1,0,1.405" transform="translate(26 9)" fill="#5d5d5d"/>
  </g>
</svg>
