<svg xmlns="http://www.w3.org/2000/svg" width="64.709" height="34.522" viewBox="0 0 64.709 34.522">
  <g id="belt_icon" data-name="belt icon" transform="translate(1 1)">
    <path id="Stroke_1" data-name="Stroke 1" d="M15.616,12.248A42.051,42.051,0,0,1,0,12.248V.73a42.136,42.136,0,0,1,15.616,0Z" transform="translate(23.715 19.656)" fill="none" stroke="#011520" stroke-linejoin="round" stroke-miterlimit="10" stroke-width="2"/>
    <path id="Stroke_3" data-name="Stroke 3" d="M8.357.5H0" transform="translate(30.974 25.663)" fill="none" stroke="#011520" stroke-linecap="round" stroke-miterlimit="10" stroke-width="2"/>
    <path id="Stroke_5" data-name="Stroke 5" d="M.5,0V1.222" transform="translate(18.437 25.022)" fill="none" stroke="#011520" stroke-linecap="round" stroke-linejoin="round" stroke-miterlimit="10" stroke-width="2"/>
    <path id="Stroke_7" data-name="Stroke 7" d="M.5,0V1.222" transform="translate(12.436 23.834)" fill="none" stroke="#011520" stroke-linecap="round" stroke-linejoin="round" stroke-miterlimit="10" stroke-width="2"/>
    <path id="Stroke_9" data-name="Stroke 9" d="M0,7.418C4.45,3.891,14.992,0,27.3,0,39.663,0,50.251,3.932,54.661,7.473" transform="translate(4.059 7.603)" fill="none" stroke="#011520" stroke-miterlimit="10" stroke-width="2"/>
    <path id="Stroke_11" data-name="Stroke 11" d="M39.331,31.107c13.675-1.363,23.378-6.17,23.378-11.891V12.278C62.709,5.5,49.076,0,31.353,0S0,5.5,0,12.278l.026,7.344C.5,25.208,10.2,29.852,23.715,31.139" transform="translate(0 0)" fill="none" stroke="#011520" stroke-miterlimit="10" stroke-width="2"/>
    <path id="Stroke_13" data-name="Stroke 13" d="M23.281,11.6C9.9,10.029,0,4.584,0,0" transform="translate(0.435 10.13)" fill="none" stroke="#011520" stroke-miterlimit="10" stroke-width="2"/>
    <path id="Stroke_15" data-name="Stroke 15" d="M22.945,0c0,4.545-9.733,9.937-22.945,11.559" transform="translate(39.331 10.13)" fill="none" stroke="#011520" stroke-miterlimit="10" stroke-width="2"/>
  </g>
</svg>
