<svg xmlns="http://www.w3.org/2000/svg" width="62" height="39" viewBox="0 0 62 39">
  <g id="Group_6" data-name="Group 6" transform="translate(0.5 0.5)">
    <path id="Stroke_1" data-name="Stroke 1" d="M0,7H19V0H0Z" transform="translate(1 31)" fill="none" stroke="#414042" stroke-linecap="round" stroke-linejoin="round" stroke-miterlimit="10" stroke-width="1"/>
    <path id="Stroke_3" data-name="Stroke 3" d="M0,0V4.4H19.2L34.282,9.759A25.464,25.464,0,0,0,42.14,11H61V6.6H42.614a25.45,25.45,0,0,1-8.725-1.54L21.463,0Z" transform="translate(0 27)" fill="none" stroke="#414042" stroke-linecap="round" stroke-linejoin="round" stroke-miterlimit="10" stroke-width="1"/>
    <path id="Stroke_4" data-name="Stroke 4" d="M0,0H21V6.75l-2.1.711a6.741,6.741,0,0,0-4.536,6.4V27H5.526V13.57A6.747,6.747,0,0,0,1.357,7.3L0,6.75Z" transform="translate(1)" fill="none" stroke="#414042" stroke-linecap="round" stroke-linejoin="round" stroke-miterlimit="10" stroke-width="1"/>
    <path id="Stroke_5" data-name="Stroke 5" d="M2.584,0,0,13H14V3.25Z" transform="translate(40 21)" fill="none" stroke="#414042" stroke-linecap="round" stroke-linejoin="round" stroke-miterlimit="10" stroke-width="1"/>
  </g>
</svg>
