<svg xmlns="http://www.w3.org/2000/svg" xmlns:xlink="http://www.w3.org/1999/xlink" width="640" height="591" viewBox="0 0 640 591">
  <defs>
    <clipPath id="clip-path">
      <rect id="banner" width="640" height="591" fill="#f5f5f5"/>
    </clipPath>
    <clipPath id="clip-path-2">
      <path id="instagram_-_FontAwesome" data-name="instagram - FontAwesome" d="M23.3,42.23H18.934c-1.971,0-4.264-.011-6.533-.139-3.957-.193-6.688-1.244-8.854-3.408S.332,33.786.139,29.829C-.005,27.28,0,24.7,0,22.208q0-.547,0-1.093t0-1.093C0,17.528-.005,14.95.139,12.4.332,8.444,1.383,5.713,3.547,3.547S8.444.332,12.4.139C14.669.011,16.963,0,18.934,0H23.3c1.971,0,4.264.011,6.533.139,3.957.193,6.688,1.244,8.854,3.408s3.215,4.9,3.408,8.854c.144,2.549.141,5.127.138,7.621q0,.547,0,1.093t0,1.093c0,2.494.006,5.073-.138,7.622-.193,3.957-1.244,6.688-3.408,8.854s-4.9,3.215-8.854,3.408C27.561,42.219,25.267,42.23,23.3,42.23Zm-2.181-3.8c.433,0,.936,0,1.487.01.664.006,1.416.014,2.2.014,2.817,0,6.791-.091,8.771-.875a7.192,7.192,0,0,0,4.014-4.014c.945-2.386.895-7.55.861-10.967-.005-.552-.01-1.054-.01-1.487s0-.935.01-1.487c.034-3.417.084-8.58-.861-10.967a6.8,6.8,0,0,0-1.594-2.42,6.8,6.8,0,0,0-2.42-1.594c-1.98-.784-5.954-.875-8.771-.875-.78,0-1.532.007-2.2.014-.552.005-1.054.01-1.487.01s-.935,0-1.487-.01c-.664-.006-1.416-.014-2.2-.014-2.817,0-6.791.091-8.771.875a6.8,6.8,0,0,0-2.42,1.594,6.8,6.8,0,0,0-1.594,2.42c-.945,2.386-.895,7.55-.861,10.967.005.552.01,1.054.01,1.487s0,.935-.01,1.487c-.034,3.417-.084,8.58.861,10.967a6.8,6.8,0,0,0,1.594,2.42,6.8,6.8,0,0,0,2.42,1.594c1.98.784,5.954.875,8.771.875.78,0,1.532-.007,2.2-.014C20.18,38.439,20.682,38.434,21.115,38.434Zm0-6.487A10.832,10.832,0,1,1,31.947,21.115,10.844,10.844,0,0,1,21.115,31.947Zm0-17.87a7.038,7.038,0,1,0,7.038,7.038A7.046,7.046,0,0,0,21.115,14.077Zm11.271-1.7a2.53,2.53,0,1,1,2.53-2.53A2.532,2.532,0,0,1,32.386,12.373Z" transform="translate(0 0)" fill="#222"/>
    </clipPath>
  </defs>
  <g id="Banner_skate" data-name="Banner skate" clip-path="url(#clip-path)">
    <g id="Group_2" data-name="Group 2" transform="translate(78 65)">
      <g id="social_ig" data-name="social/ig" transform="translate(14)" opacity="0.3">
        <g id="Group_4" data-name="Group 4" transform="translate(9.385 9.385)">
          <path id="instagram_-_FontAwesome-2" data-name="instagram - FontAwesome" d="M23.3,42.23H18.934c-1.971,0-4.264-.011-6.533-.139-3.957-.193-6.688-1.244-8.854-3.408S.332,33.786.139,29.829C-.005,27.28,0,24.7,0,22.208q0-.547,0-1.093t0-1.093C0,17.528-.005,14.95.139,12.4.332,8.444,1.383,5.713,3.547,3.547S8.444.332,12.4.139C14.669.011,16.963,0,18.934,0H23.3c1.971,0,4.264.011,6.533.139,3.957.193,6.688,1.244,8.854,3.408s3.215,4.9,3.408,8.854c.144,2.549.141,5.127.138,7.621q0,.547,0,1.093t0,1.093c0,2.494.006,5.073-.138,7.622-.193,3.957-1.244,6.688-3.408,8.854s-4.9,3.215-8.854,3.408C27.561,42.219,25.267,42.23,23.3,42.23Zm-2.181-3.8c.433,0,.936,0,1.487.01.664.006,1.416.014,2.2.014,2.817,0,6.791-.091,8.771-.875a7.192,7.192,0,0,0,4.014-4.014c.945-2.386.895-7.55.861-10.967-.005-.552-.01-1.054-.01-1.487s0-.935.01-1.487c.034-3.417.084-8.58-.861-10.967a6.8,6.8,0,0,0-1.594-2.42,6.8,6.8,0,0,0-2.42-1.594c-1.98-.784-5.954-.875-8.771-.875-.78,0-1.532.007-2.2.014-.552.005-1.054.01-1.487.01s-.935,0-1.487-.01c-.664-.006-1.416-.014-2.2-.014-2.817,0-6.791.091-8.771.875a6.8,6.8,0,0,0-2.42,1.594,6.8,6.8,0,0,0-1.594,2.42c-.945,2.386-.895,7.55-.861,10.967.005.552.01,1.054.01,1.487s0,.935-.01,1.487c-.034,3.417-.084,8.58.861,10.967a6.8,6.8,0,0,0,1.594,2.42,6.8,6.8,0,0,0,2.42,1.594c1.98.784,5.954.875,8.771.875.78,0,1.532-.007,2.2-.014C20.18,38.439,20.682,38.434,21.115,38.434Zm0-6.487A10.832,10.832,0,1,1,31.947,21.115,10.844,10.844,0,0,1,21.115,31.947Zm0-17.87a7.038,7.038,0,1,0,7.038,7.038A7.046,7.046,0,0,0,21.115,14.077Zm11.271-1.7a2.53,2.53,0,1,1,2.53-2.53A2.532,2.532,0,0,1,32.386,12.373Z" transform="translate(0 0)" fill="#222"/>
          <g id="Mask_Group_4" data-name="Mask Group 4" clip-path="url(#clip-path-2)">
            <g id="state" transform="translate(-9.385 -9.385)">
              <rect id="bg" width="61" height="61" fill="#222"/>
            </g>
          </g>
        </g>
      </g>
      <g id="large-btn_copy_4" data-name="large-btn copy 4" transform="translate(134 400)">
        <rect id="BG-2" data-name="BG" width="200" height="61" rx="30.5" fill="#c6a07a"/>
        <text id="_20:48" data-name="20:48" transform="translate(100.5 36)" fill="#fff" font-size="15" font-family="SegoeUI, Segoe UI"><tspan x="-47.897" y="0">Shop the Look</tspan></text>
      </g>
      <text id="Street_style_from_Lo" data-name="Street style from Lo" transform="translate(14 108)" fill="#333" font-size="36" font-family="SegoeUI, Segoe UI"><tspan x="0" y="39">Street style from </tspan><tspan x="0" y="87">London Fashion Week</tspan></text>
      <text id="Lorem_ipsum_dolor_si" data-name="Lorem ipsum dolor si" transform="translate(14 247)" fill="#555" font-size="15" font-family="SegoeUI, Segoe UI" letter-spacing="0.013em"><tspan x="0" y="16">Lorem ipsum dolor sit amet, consectetur adipiscing elit, sed do </tspan><tspan x="0" y="44">eiusmod tempor incididunt ut labore et dolore magna aliqua. Ut </tspan><tspan x="0" y="72">enim ad minim veniam, quis nostrud exercitation ullamco laboris </tspan><tspan x="0" y="100">nisi ut aliquip ex ea commodo consequat. </tspan></text>
      <g id="Group" transform="translate(0 76)">
        <text id="_LondonStreetStyle" data-name="#LondonStreetStyle" fill="#fd5c48" font-size="21" font-family="SegoeUI, Segoe UI"><tspan x="26.581" y="23">#LondonStreetStyle</tspan></text>
      </g>
    </g>
  </g>
</svg>
